<?xml version="1.0" encoding="UTF-8"?>
<svg width="140px" height="883px" viewBox="0 0 140 883" version="1.1" xmlns="http://www.w3.org/2000/svg" xmlns:xlink="http://www.w3.org/1999/xlink">
    <title>timeline</title>
    <g id="Page-1" stroke="none" stroke-width="1" fill="none" fill-rule="evenodd">
        <g id="Desktop" transform="translate(-433.000000, -3144.000000)">
            <g id="timeline-section" transform="translate(45.000000, 3104.000000)">
                <g id="timeline" transform="translate(388.000000, 41.000000)">
                    <g transform="translate(44.480474, 0.000000)">
                        <line x1="-414.460948" y1="440.5" x2="464.5" y2="440.5" id="Line-2" stroke="#008297" stroke-width="4" stroke-linecap="round" stroke-linejoin="round" transform="translate(25.000000, 440.500000) rotate(-270.000000) translate(-25.000000, -440.500000) "></line>
                        <g id="Group" transform="translate(0.519526, 113.000000)">
                            <circle id="Oval-Copy-3" fill="#B4DFE7" transform="translate(22.500000, 31.500000) rotate(-270.000000) translate(-22.500000, -31.500000) " cx="22.5" cy="31.5" r="22.5"></circle>
                            <circle id="Oval-Copy-4" fill="#003D8E" transform="translate(22.500000, 329.500000) rotate(-270.000000) translate(-22.500000, -329.500000) " cx="22.5" cy="329.5" r="22.5"></circle>
                            <circle id="Oval-Copy-6" fill="#F4C1B8" transform="translate(22.500000, 632.500000) rotate(-270.000000) translate(-22.500000, -632.500000) " cx="22.5" cy="632.5" r="22.5"></circle>
                            <circle id="Oval" stroke="#FEDEC9" stroke-width="3.5" transform="translate(26.500000, 22.500000) rotate(-270.000000) translate(-26.500000, -22.500000) " cx="26.5" cy="22.5" r="20.75"></circle>
                            <circle id="Oval-Copy-5" stroke="#F4C1B8" stroke-width="3.5" transform="translate(26.500000, 325.500000) rotate(-270.000000) translate(-26.500000, -325.500000) " cx="26.5" cy="325.5" r="20.75"></circle>
                            <circle id="Oval-Copy-7" stroke="#B4DFE7" stroke-width="3.5" transform="translate(26.500000, 623.500000) rotate(-270.000000) translate(-26.500000, -623.500000) " cx="26.5" cy="623.5" r="20.75"></circle>
                        </g>
                    </g>
                    <path d="M122.203125,104.65625 C122.619792,104.65625 123.007812,104.611979 123.367188,104.523438 C123.726562,104.434896 124.053385,104.31901 124.347656,104.175781 C124.641927,104.032552 124.897135,103.86849 125.113281,103.683594 C125.329427,103.498698 125.505208,103.309896 125.640625,103.117188 L125.640625,103.117188 L124.554688,101.945313 C124.429688,102.106771 124.283854,102.247396 124.117188,102.367188 C123.950521,102.486979 123.770833,102.58724 123.578125,102.667969 C123.385417,102.748698 123.183594,102.809896 122.972656,102.851563 C122.761719,102.893229 122.549479,102.914063 122.335938,102.914063 C122.033854,102.914063 121.755208,102.867188 121.5,102.773438 C121.244792,102.679688 121.018229,102.546875 120.820312,102.375 C120.622396,102.203125 120.459635,101.998698 120.332031,101.761719 C120.204427,101.52474 120.119792,101.263021 120.078125,100.976563 L120.078125,100.976563 L125.8125,100.976563 L125.8125,100.054688 C125.8125,99.4348958 125.726562,98.8684896 125.554688,98.3554688 C125.382812,97.8424479 125.13151,97.4036458 124.800781,97.0390625 C124.470052,96.6744792 124.066406,96.3919271 123.589844,96.1914063 C123.113281,95.9908854 122.570312,95.890625 121.960938,95.890625 C121.372396,95.890625 120.828125,95.9973958 120.328125,96.2109375 C119.828125,96.4244792 119.395833,96.7239583 119.03125,97.109375 C118.666667,97.4947917 118.382812,97.9544271 118.179688,98.4882813 C117.976562,99.0221354 117.875,99.6119792 117.875,100.257813 L117.875,100.257813 L117.875,100.570313 C117.875,101.138021 117.977865,101.670573 118.183594,102.167969 C118.389323,102.665365 118.682292,103.097656 119.0625,103.464844 C119.442708,103.832031 119.898438,104.122396 120.429688,104.335938 C120.960938,104.549479 121.552083,104.65625 122.203125,104.65625 Z M123.679688,99.4765625 L120.117188,99.4765625 C120.169271,99.2005208 120.247396,98.9505208 120.351562,98.7265625 C120.455729,98.5026042 120.584635,98.3098958 120.738281,98.1484375 C120.891927,97.9869792 121.070312,97.8632813 121.273438,97.7773438 C121.476562,97.6914063 121.700521,97.6484375 121.945312,97.6484375 C122.221354,97.6484375 122.464844,97.6914063 122.675781,97.7773438 C122.886719,97.8632813 123.065104,97.9804688 123.210938,98.1289063 C123.356771,98.2773438 123.46875,98.453125 123.546875,98.65625 C123.625,98.859375 123.669271,99.0755208 123.679688,99.3046875 L123.679688,99.3046875 L123.679688,99.4765625 Z M129.648438,104.5 L131.578125,101.734375 L133.523438,104.5 L135.867188,104.5 L132.929688,100.195313 L135.765625,96.046875 L133.429688,96.046875 L131.570312,98.6875 L129.742188,96.046875 L127.40625,96.046875 L130.234375,100.195313 L127.296875,104.5 L129.648438,104.5 Z M120.273438,125.5 L120.273438,119.398438 C120.445312,119.164063 120.665365,118.981771 120.933594,118.851563 C121.201823,118.721354 121.518229,118.65625 121.882812,118.65625 C122.132812,118.65625 122.356771,118.688802 122.554688,118.753906 C122.752604,118.81901 122.921875,118.919271 123.0625,119.054688 C123.203125,119.190104 123.311198,119.367188 123.386719,119.585938 C123.46224,119.804688 123.5,120.065104 123.5,120.367188 L123.5,120.367188 L123.5,125.5 L125.671875,125.5 L125.671875,120.382813 C125.671875,119.763021 125.597656,119.233073 125.449219,118.792969 C125.300781,118.352865 125.09375,117.992188 124.828125,117.710938 C124.5625,117.429688 124.244792,117.222656 123.875,117.089844 C123.505208,116.957031 123.098958,116.890625 122.65625,116.890625 C122.15625,116.890625 121.704427,117.007813 121.300781,117.242188 C120.897135,117.476563 120.554688,117.799479 120.273438,118.210938 L120.273438,118.210938 L120.273438,113.5 L118.101562,113.5 L118.101562,125.5 L120.273438,125.5 Z M131.78125,116.039063 C132.166667,116.039063 132.472656,115.93099 132.699219,115.714844 C132.925781,115.498698 133.039062,115.221354 133.039062,114.882813 C133.039062,114.544271 132.925781,114.266927 132.699219,114.050781 C132.472656,113.834635 132.166667,113.726563 131.78125,113.726563 C131.59375,113.726563 131.423177,113.755208 131.269531,113.8125 C131.115885,113.869792 130.984375,113.949219 130.875,114.050781 C130.765625,114.152344 130.68099,114.27474 130.621094,114.417969 C130.561198,114.561198 130.53125,114.716146 130.53125,114.882813 C130.53125,115.049479 130.561198,115.204427 130.621094,115.347656 C130.68099,115.490885 130.765625,115.613281 130.875,115.714844 C130.984375,115.816406 131.115885,115.895833 131.269531,115.953125 C131.423177,116.010417 131.59375,116.039063 131.78125,116.039063 Z M135.171875,125.5 L135.171875,123.734375 L132.882812,123.734375 L132.882812,117.046875 L128.28125,117.046875 L128.28125,118.820313 L130.6875,118.820313 L130.6875,123.734375 L128.28125,123.734375 L128.28125,125.5 L135.171875,125.5 Z M122.421875,146.65625 C122.96875,146.65625 123.447917,146.550781 123.859375,146.339844 C124.270833,146.128906 124.614583,145.833333 124.890625,145.453125 C125.166667,145.072917 125.373698,144.619792 125.511719,144.09375 C125.64974,143.567708 125.71875,142.989583 125.71875,142.359375 L125.71875,142.359375 L125.71875,142.195313 C125.71875,141.570313 125.64974,140.99349 125.511719,140.464844 C125.373698,139.936198 125.166667,139.481771 124.890625,139.101563 C124.614583,138.721354 124.269531,138.424479 123.855469,138.210938 C123.441406,137.997396 122.958333,137.890625 122.40625,137.890625 C121.947917,137.890625 121.548177,137.971354 121.207031,138.132813 C120.865885,138.294271 120.570312,138.520833 120.320312,138.8125 L120.320312,138.8125 L120.320312,134.5 L118.148438,134.5 L118.148438,146.5 L120.101562,146.5 L120.203125,145.601563 C120.463542,145.934896 120.77474,146.19401 121.136719,146.378906 C121.498698,146.563802 121.927083,146.65625 122.421875,146.65625 Z M121.875,144.898438 C121.46875,144.898438 121.141927,144.815104 120.894531,144.648438 C120.647135,144.481771 120.455729,144.252604 120.320312,143.960938 L120.320312,143.960938 L120.320312,140.59375 C120.455729,140.302083 120.647135,140.072917 120.894531,139.90625 C121.141927,139.739583 121.463542,139.65625 121.859375,139.65625 C122.1875,139.65625 122.460938,139.723958 122.679688,139.859375 C122.898438,139.994792 123.071615,140.178385 123.199219,140.410156 C123.326823,140.641927 123.416667,140.911458 123.46875,141.21875 C123.520833,141.526042 123.546875,141.851563 123.546875,142.195313 L123.546875,142.195313 L123.546875,142.359375 C123.546875,142.723958 123.520833,143.061198 123.46875,143.371094 C123.416667,143.68099 123.326823,143.949219 123.199219,144.175781 C123.071615,144.402344 122.901042,144.579427 122.6875,144.707031 C122.473958,144.834635 122.203125,144.898438 121.875,144.898438 Z M131.78125,137.039063 C132.166667,137.039063 132.472656,136.93099 132.699219,136.714844 C132.925781,136.498698 133.039062,136.221354 133.039062,135.882813 C133.039062,135.544271 132.925781,135.266927 132.699219,135.050781 C132.472656,134.834635 132.166667,134.726563 131.78125,134.726563 C131.59375,134.726563 131.423177,134.755208 131.269531,134.8125 C131.115885,134.869792 130.984375,134.949219 130.875,135.050781 C130.765625,135.152344 130.68099,135.27474 130.621094,135.417969 C130.561198,135.561198 130.53125,135.716146 130.53125,135.882813 C130.53125,136.049479 130.561198,136.204427 130.621094,136.347656 C130.68099,136.490885 130.765625,136.613281 130.875,136.714844 C130.984375,136.816406 131.115885,136.895833 131.269531,136.953125 C131.423177,137.010417 131.59375,137.039063 131.78125,137.039063 Z M135.171875,146.5 L135.171875,144.734375 L132.882812,144.734375 L132.882812,138.046875 L128.28125,138.046875 L128.28125,139.820313 L130.6875,139.820313 L130.6875,144.734375 L128.28125,144.734375 L128.28125,146.5 L135.171875,146.5 Z M122.984375,167.664063 C123.223958,167.664063 123.467448,167.652344 123.714844,167.628906 C123.96224,167.605469 124.200521,167.572917 124.429688,167.53125 C124.658854,167.489583 124.875,167.436198 125.078125,167.371094 C125.28125,167.30599 125.458333,167.229167 125.609375,167.140625 L125.609375,167.140625 L125.398438,165.648438 C125.299479,165.674479 125.18099,165.700521 125.042969,165.726563 C124.904948,165.752604 124.75651,165.777344 124.597656,165.800781 C124.438802,165.824219 124.272135,165.84375 124.097656,165.859375 C123.923177,165.875 123.752604,165.882813 123.585938,165.882813 C123.356771,165.882813 123.14974,165.856771 122.964844,165.804688 C122.779948,165.752604 122.622396,165.665365 122.492188,165.542969 C122.361979,165.420573 122.261719,165.25651 122.191406,165.050781 C122.121094,164.845052 122.085938,164.588542 122.085938,164.28125 L122.085938,164.28125 L122.085938,160.648438 L125.242188,160.648438 L125.242188,159.046875 L122.085938,159.046875 L122.085938,156.976563 L119.914062,156.976563 L119.914062,159.046875 L117.984375,159.046875 L117.984375,160.648438 L119.914062,160.648438 L119.914062,164.492188 C119.914062,165.049479 119.986979,165.527344 120.132812,165.925781 C120.278646,166.324219 120.485677,166.652344 120.753906,166.910156 C121.022135,167.167969 121.345052,167.358073 121.722656,167.480469 C122.10026,167.602865 122.520833,167.664063 122.984375,167.664063 Z M131.78125,158.039063 C132.166667,158.039063 132.472656,157.93099 132.699219,157.714844 C132.925781,157.498698 133.039062,157.221354 133.039062,156.882813 C133.039062,156.544271 132.925781,156.266927 132.699219,156.050781 C132.472656,155.834635 132.166667,155.726563 131.78125,155.726563 C131.59375,155.726563 131.423177,155.755208 131.269531,155.8125 C131.115885,155.869792 130.984375,155.949219 130.875,156.050781 C130.765625,156.152344 130.68099,156.27474 130.621094,156.417969 C130.561198,156.561198 130.53125,156.716146 130.53125,156.882813 C130.53125,157.049479 130.561198,157.204427 130.621094,157.347656 C130.68099,157.490885 130.765625,157.613281 130.875,157.714844 C130.984375,157.816406 131.115885,157.895833 131.269531,157.953125 C131.423177,158.010417 131.59375,158.039063 131.78125,158.039063 Z M135.171875,167.5 L135.171875,165.734375 L132.882812,165.734375 L132.882812,159.046875 L128.28125,159.046875 L128.28125,160.820313 L130.6875,160.820313 L130.6875,165.734375 L128.28125,165.734375 L128.28125,167.5 L135.171875,167.5 Z M121.804688,188.664063 C122.434896,188.664063 122.997396,188.55599 123.492188,188.339844 C123.986979,188.123698 124.403646,187.822917 124.742188,187.4375 C125.080729,187.052083 125.338542,186.597656 125.515625,186.074219 C125.692708,185.550781 125.78125,184.979167 125.78125,184.359375 L125.78125,184.359375 L125.78125,184.195313 C125.78125,183.580729 125.692708,183.011719 125.515625,182.488281 C125.338542,181.964844 125.079427,181.510417 124.738281,181.125 C124.397135,180.739583 123.979167,180.4375 123.484375,180.21875 C122.989583,180 122.424479,179.890625 121.789062,179.890625 C121.153646,179.890625 120.589844,180 120.097656,180.21875 C119.605469,180.4375 119.188802,180.739583 118.847656,181.125 C118.50651,181.510417 118.247396,181.964844 118.070312,182.488281 C117.893229,183.011719 117.804688,183.580729 117.804688,184.195313 L117.804688,184.195313 L117.804688,184.359375 C117.804688,184.979167 117.893229,185.550781 118.070312,186.074219 C118.247396,186.597656 118.50651,187.052083 118.847656,187.4375 C119.188802,187.822917 119.608073,188.123698 120.105469,188.339844 C120.602865,188.55599 121.169271,188.664063 121.804688,188.664063 Z M121.804688,186.921875 C121.476562,186.921875 121.196615,186.854167 120.964844,186.71875 C120.733073,186.583333 120.544271,186.39974 120.398438,186.167969 C120.252604,185.936198 120.145833,185.665365 120.078125,185.355469 C120.010417,185.045573 119.976562,184.713542 119.976562,184.359375 L119.976562,184.359375 L119.976562,184.195313 C119.976562,183.851563 120.010417,183.526042 120.078125,183.21875 C120.145833,182.911458 120.252604,182.640625 120.398438,182.40625 C120.544271,182.171875 120.731771,181.986979 120.960938,181.851563 C121.190104,181.716146 121.466146,181.648438 121.789062,181.648438 C122.117188,181.648438 122.395833,181.716146 122.625,181.851563 C122.854167,181.986979 123.040365,182.171875 123.183594,182.40625 C123.326823,182.640625 123.432292,182.911458 123.5,183.21875 C123.567708,183.526042 123.601562,183.851563 123.601562,184.195313 L123.601562,184.195313 L123.601562,184.359375 C123.601562,184.713542 123.567708,185.045573 123.5,185.355469 C123.432292,185.665365 123.326823,185.936198 123.183594,186.167969 C123.040365,186.39974 122.854167,186.583333 122.625,186.71875 C122.395833,186.854167 122.122396,186.921875 121.804688,186.921875 Z M129.882812,188.5 L129.882812,182.492188 C130.044271,182.231771 130.255208,182.027344 130.515625,181.878906 C130.776042,181.730469 131.091146,181.65625 131.460938,181.65625 C131.710938,181.65625 131.934896,181.68099 132.132812,181.730469 C132.330729,181.779948 132.5,181.867188 132.640625,181.992188 C132.78125,182.117188 132.889323,182.28776 132.964844,182.503906 C133.040365,182.720052 133.078125,182.994792 133.078125,183.328125 L133.078125,183.328125 L133.078125,188.5 L135.25,188.5 L135.25,183.296875 C135.25,182.682292 135.178385,182.160156 135.035156,181.730469 C134.891927,181.300781 134.691406,180.949219 134.433594,180.675781 C134.175781,180.402344 133.869792,180.203125 133.515625,180.078125 C133.161458,179.953125 132.770833,179.890625 132.34375,179.890625 C131.817708,179.890625 131.338542,180.00651 130.90625,180.238281 C130.473958,180.470052 130.106771,180.796875 129.804688,181.21875 L129.804688,181.21875 L129.671875,180.046875 L127.703125,180.046875 L127.703125,188.5 L129.882812,188.5 Z" id="exhibition" fill="#F4796D" fill-rule="nonzero"></path>
                    <path d="M2.9609375,394.5 L2.9609375,388.171875 C3.01822917,388.015625 3.09765625,387.890625 3.19921875,387.796875 C3.30078125,387.703125 3.43489583,387.65625 3.6015625,387.65625 C3.68489583,387.65625 3.76302083,387.667969 3.8359375,387.691406 C3.90885417,387.714844 3.97265625,387.755208 4.02734375,387.8125 C4.08203125,387.869792 4.125,387.950521 4.15625,388.054688 C4.1875,388.158854 4.203125,388.291667 4.203125,388.453125 L4.203125,388.453125 L4.203125,394.5 L6.1171875,394.5 L6.1171875,388.046875 C6.17447917,387.927083 6.25520833,387.832031 6.359375,387.761719 C6.46354167,387.691406 6.59114583,387.65625 6.7421875,387.65625 C6.8203125,387.65625 6.89713542,387.667969 6.97265625,387.691406 C7.04817708,387.714844 7.11458333,387.75651 7.171875,387.816406 C7.22916667,387.876302 7.27473958,387.958333 7.30859375,388.0625 C7.34244792,388.166667 7.359375,388.299479 7.359375,388.460938 L7.359375,388.460938 L7.359375,394.5 L9.3359375,394.5 L9.3359375,388.46875 C9.3359375,388 9.29036458,387.602865 9.19921875,387.277344 C9.10807292,386.951823 8.98046875,386.686198 8.81640625,386.480469 C8.65234375,386.27474 8.45963542,386.125 8.23828125,386.03125 C8.01692708,385.9375 7.77864583,385.890625 7.5234375,385.890625 C7.15885417,385.890625 6.84765625,385.970052 6.58984375,386.128906 C6.33203125,386.28776 6.11979167,386.507813 5.953125,386.789063 C5.74479167,386.190104 5.29947917,385.890625 4.6171875,385.890625 C4.2109375,385.890625 3.86588542,385.996094 3.58203125,386.207031 C3.29817708,386.417969 3.07552083,386.705729 2.9140625,387.070313 L2.9140625,387.070313 L2.8515625,386.046875 L0.984375,386.046875 L0.984375,394.5 L2.9609375,394.5 Z M15.1796875,385.039063 C15.5651042,385.039063 15.8710938,384.93099 16.0976562,384.714844 C16.3242188,384.498698 16.4375,384.221354 16.4375,383.882813 C16.4375,383.544271 16.3242188,383.266927 16.0976562,383.050781 C15.8710938,382.834635 15.5651042,382.726563 15.1796875,382.726563 C14.9921875,382.726563 14.8216146,382.755208 14.6679688,382.8125 C14.5143229,382.869792 14.3828125,382.949219 14.2734375,383.050781 C14.1640625,383.152344 14.0794271,383.27474 14.0195312,383.417969 C13.9596354,383.561198 13.9296875,383.716146 13.9296875,383.882813 C13.9296875,384.049479 13.9596354,384.204427 14.0195312,384.347656 C14.0794271,384.490885 14.1640625,384.613281 14.2734375,384.714844 C14.3828125,384.816406 14.5143229,384.895833 14.6679688,384.953125 C14.8216146,385.010417 14.9921875,385.039063 15.1796875,385.039063 Z M18.5703125,394.5 L18.5703125,392.734375 L16.28125,392.734375 L16.28125,386.046875 L11.6796875,386.046875 L11.6796875,387.820313 L14.0859375,387.820313 L14.0859375,392.734375 L11.6796875,392.734375 L11.6796875,394.5 L18.5703125,394.5 Z M3.6796875,415.5 L3.6796875,409.492188 C3.84114583,409.231771 4.05208333,409.027344 4.3125,408.878906 C4.57291667,408.730469 4.88802083,408.65625 5.2578125,408.65625 C5.5078125,408.65625 5.73177083,408.68099 5.9296875,408.730469 C6.12760417,408.779948 6.296875,408.867188 6.4375,408.992188 C6.578125,409.117188 6.68619792,409.28776 6.76171875,409.503906 C6.83723958,409.720052 6.875,409.994792 6.875,410.328125 L6.875,410.328125 L6.875,415.5 L9.046875,415.5 L9.046875,410.296875 C9.046875,409.682292 8.97526042,409.160156 8.83203125,408.730469 C8.68880208,408.300781 8.48828125,407.949219 8.23046875,407.675781 C7.97265625,407.402344 7.66666667,407.203125 7.3125,407.078125 C6.95833333,406.953125 6.56770833,406.890625 6.140625,406.890625 C5.61458333,406.890625 5.13541667,407.00651 4.703125,407.238281 C4.27083333,407.470052 3.90364583,407.796875 3.6015625,408.21875 L3.6015625,408.21875 L3.46875,407.046875 L1.5,407.046875 L1.5,415.5 L3.6796875,415.5 Z M15.1796875,406.039063 C15.5651042,406.039063 15.8710938,405.93099 16.0976562,405.714844 C16.3242188,405.498698 16.4375,405.221354 16.4375,404.882813 C16.4375,404.544271 16.3242188,404.266927 16.0976562,404.050781 C15.8710938,403.834635 15.5651042,403.726563 15.1796875,403.726563 C14.9921875,403.726563 14.8216146,403.755208 14.6679688,403.8125 C14.5143229,403.869792 14.3828125,403.949219 14.2734375,404.050781 C14.1640625,404.152344 14.0794271,404.27474 14.0195312,404.417969 C13.9596354,404.561198 13.9296875,404.716146 13.9296875,404.882813 C13.9296875,405.049479 13.9596354,405.204427 14.0195312,405.347656 C14.0794271,405.490885 14.1640625,405.613281 14.2734375,405.714844 C14.3828125,405.816406 14.5143229,405.895833 14.6679688,405.953125 C14.8216146,406.010417 14.9921875,406.039063 15.1796875,406.039063 Z M18.5703125,415.5 L18.5703125,413.734375 L16.28125,413.734375 L16.28125,407.046875 L11.6796875,407.046875 L11.6796875,408.820313 L14.0859375,408.820313 L14.0859375,413.734375 L11.6796875,413.734375 L11.6796875,415.5 L18.5703125,415.5 Z M5.28125,436.664063 C5.765625,436.664063 6.22526042,436.58724 6.66015625,436.433594 C7.09505208,436.279948 7.4765625,436.067708 7.8046875,435.796875 C8.1328125,435.526042 8.39192708,435.203125 8.58203125,434.828125 C8.77213542,434.453125 8.86197917,434.046875 8.8515625,433.609375 L8.8515625,433.609375 L6.8046875,433.609375 C6.81510417,433.807292 6.77994792,433.986979 6.69921875,434.148438 C6.61848958,434.309896 6.50520833,434.447917 6.359375,434.5625 C6.21354167,434.677083 6.04427083,434.765625 5.8515625,434.828125 C5.65885417,434.890625 5.45572917,434.921875 5.2421875,434.921875 C4.89322917,434.921875 4.60546875,434.851563 4.37890625,434.710938 C4.15234375,434.570313 3.97265625,434.384115 3.83984375,434.152344 C3.70703125,433.920573 3.61458333,433.652344 3.5625,433.347656 C3.51041667,433.042969 3.484375,432.726563 3.484375,432.398438 L3.484375,432.398438 L3.484375,432.164063 C3.484375,431.841146 3.51171875,431.528646 3.56640625,431.226563 C3.62109375,430.924479 3.71484375,430.65625 3.84765625,430.421875 C3.98046875,430.1875 4.15885417,430 4.3828125,429.859375 C4.60677083,429.71875 4.890625,429.648438 5.234375,429.648438 C5.46875,429.648438 5.68489583,429.688802 5.8828125,429.769531 C6.08072917,429.85026 6.25,429.958333 6.390625,430.09375 C6.53125,430.229167 6.63802083,430.390625 6.7109375,430.578125 C6.78385417,430.765625 6.81510417,430.963542 6.8046875,431.171875 L6.8046875,431.171875 L8.8515625,431.171875 C8.86197917,430.671875 8.77864583,430.220052 8.6015625,429.816406 C8.42447917,429.41276 8.17578125,429.06901 7.85546875,428.785156 C7.53515625,428.501302 7.15364583,428.28125 6.7109375,428.125 C6.26822917,427.96875 5.78645833,427.890625 5.265625,427.890625 C4.61458333,427.890625 4.04296875,428.002604 3.55078125,428.226563 C3.05859375,428.450521 2.64583333,428.755208 2.3125,429.140625 C1.97916667,429.526042 1.72916667,429.977865 1.5625,430.496094 C1.39583333,431.014323 1.3125,431.570313 1.3125,432.164063 L1.3125,432.164063 L1.3125,432.398438 C1.3125,432.992188 1.39713542,433.548177 1.56640625,434.066406 C1.73567708,434.584635 1.98567708,435.036458 2.31640625,435.421875 C2.64713542,435.807292 3.05989583,436.110677 3.5546875,436.332031 C4.04947917,436.553385 4.625,436.664063 5.28125,436.664063 Z M13.8515625,436.65625 C14.1171875,436.65625 14.3645833,436.63151 14.59375,436.582031 C14.8229167,436.532552 15.0325521,436.464844 15.2226562,436.378906 C15.4127604,436.292969 15.5859375,436.192708 15.7421875,436.078125 C15.8984375,435.963542 16.0364583,435.841146 16.15625,435.710938 C16.1822917,435.861979 16.2135417,436.005208 16.25,436.140625 C16.2864583,436.276042 16.3307292,436.395833 16.3828125,436.5 L16.3828125,436.5 L18.5859375,436.5 L18.5859375,436.367188 C18.4765625,436.153646 18.3932292,435.898438 18.3359375,435.601563 C18.2786458,435.304688 18.25,434.929688 18.25,434.476563 L18.25,434.476563 L18.25,430.851563 C18.25,430.361979 18.1588542,429.93099 17.9765625,429.558594 C17.7942708,429.186198 17.5416667,428.877604 17.21875,428.632813 C16.8958333,428.388021 16.5143229,428.203125 16.0742188,428.078125 C15.6341146,427.953125 15.1588542,427.890625 14.6484375,427.890625 C14.0807292,427.890625 13.5768229,427.96224 13.1367188,428.105469 C12.6966146,428.248698 12.3242188,428.442708 12.0195312,428.6875 C11.7148438,428.932292 11.4830729,429.216146 11.3242188,429.539063 C11.1653646,429.861979 11.0859375,430.203125 11.0859375,430.5625 L11.0859375,430.5625 L13.2578125,430.5625 C13.2578125,430.244792 13.359375,429.990885 13.5625,429.800781 C13.765625,429.610677 14.0885417,429.515625 14.53125,429.515625 C15.03125,429.515625 15.4140625,429.634115 15.6796875,429.871094 C15.9453125,430.108073 16.078125,430.429688 16.078125,430.835938 L16.078125,430.835938 L16.078125,431.335938 L14.8671875,431.335938 C13.5494792,431.335938 12.5585938,431.579427 11.8945312,432.066406 C11.2304688,432.553385 10.8984375,433.242188 10.8984375,434.132813 C10.8984375,434.497396 10.9713542,434.834635 11.1171875,435.144531 C11.2630208,435.454427 11.4661458,435.721354 11.7265625,435.945313 C11.9869792,436.169271 12.2981771,436.34375 12.6601562,436.46875 C13.0221354,436.59375 13.4192708,436.65625 13.8515625,436.65625 Z M14.3125,434.976563 C13.8958333,434.976563 13.5846354,434.880208 13.3789062,434.6875 C13.1731771,434.494792 13.0703125,434.252604 13.0703125,433.960938 C13.0703125,433.768229 13.1067708,433.589844 13.1796875,433.425781 C13.2526042,433.261719 13.3645833,433.121094 13.515625,433.003906 C13.6666667,432.886719 13.8619792,432.795573 14.1015625,432.730469 C14.3411458,432.665365 14.6302083,432.632813 14.96875,432.632813 L14.96875,432.632813 L16.078125,432.632813 L16.078125,434.085938 C16.015625,434.195313 15.9296875,434.303385 15.8203125,434.410156 C15.7109375,434.516927 15.5807292,434.611979 15.4296875,434.695313 C15.2786458,434.778646 15.109375,434.846354 14.921875,434.898438 C14.734375,434.950521 14.53125,434.976563 14.3125,434.976563 Z M4.8125,457.5 L4.8125,452.421875 C4.99479167,451.984375 5.26953125,451.648438 5.63671875,451.414063 C6.00390625,451.179688 6.4921875,451.0625 7.1015625,451.0625 C7.37239583,451.0625 7.65755208,451.079427 7.95703125,451.113281 C8.25651042,451.147135 8.54947917,451.197917 8.8359375,451.265625 L8.8359375,451.265625 L9.15625,449.101563 C8.984375,449.049479 8.75911458,449.001302 8.48046875,448.957031 C8.20182292,448.91276 7.8984375,448.890625 7.5703125,448.890625 C7.00260417,448.890625 6.47916667,449.027344 6,449.300781 C5.52083333,449.574219 5.109375,449.950521 4.765625,450.429688 L4.765625,450.429688 L4.6640625,449.046875 L2.640625,449.046875 L2.640625,457.5 L4.8125,457.5 Z M13.28125,457.5 L13.28125,451.492188 C13.4427083,451.231771 13.6536458,451.027344 13.9140625,450.878906 C14.1744792,450.730469 14.4895833,450.65625 14.859375,450.65625 C15.109375,450.65625 15.3333333,450.68099 15.53125,450.730469 C15.7291667,450.779948 15.8984375,450.867188 16.0390625,450.992188 C16.1796875,451.117188 16.2877604,451.28776 16.3632812,451.503906 C16.4388021,451.720052 16.4765625,451.994792 16.4765625,452.328125 L16.4765625,452.328125 L16.4765625,457.5 L18.6484375,457.5 L18.6484375,452.296875 C18.6484375,451.682292 18.5768229,451.160156 18.4335938,450.730469 C18.2903646,450.300781 18.0898438,449.949219 17.8320312,449.675781 C17.5742188,449.402344 17.2682292,449.203125 16.9140625,449.078125 C16.5598958,448.953125 16.1692708,448.890625 15.7421875,448.890625 C15.2161458,448.890625 14.7369792,449.00651 14.3046875,449.238281 C13.8723958,449.470052 13.5052083,449.796875 13.203125,450.21875 L13.203125,450.21875 L13.0703125,449.046875 L11.1015625,449.046875 L11.1015625,457.5 L13.28125,457.5 Z M5.578125,469.039063 C5.96354167,469.039063 6.26953125,468.93099 6.49609375,468.714844 C6.72265625,468.498698 6.8359375,468.221354 6.8359375,467.882813 C6.8359375,467.544271 6.72265625,467.266927 6.49609375,467.050781 C6.26953125,466.834635 5.96354167,466.726563 5.578125,466.726563 C5.390625,466.726563 5.22005208,466.755208 5.06640625,466.8125 C4.91276042,466.869792 4.78125,466.949219 4.671875,467.050781 C4.5625,467.152344 4.47786458,467.27474 4.41796875,467.417969 C4.35807292,467.561198 4.328125,467.716146 4.328125,467.882813 C4.328125,468.049479 4.35807292,468.204427 4.41796875,468.347656 C4.47786458,468.490885 4.5625,468.613281 4.671875,468.714844 C4.78125,468.816406 4.91276042,468.895833 5.06640625,468.953125 C5.22005208,469.010417 5.390625,469.039063 5.578125,469.039063 Z M8.96875,478.5 L8.96875,476.734375 L6.6796875,476.734375 L6.6796875,470.046875 L2.078125,470.046875 L2.078125,471.820313 L4.484375,471.820313 L4.484375,476.734375 L2.078125,476.734375 L2.078125,478.5 L8.96875,478.5 Z M15.828125,478.5 L19.0390625,470.046875 L16.7734375,470.046875 L14.9140625,476.015625 L14.8046875,476.601563 L14.6953125,475.992188 L12.828125,470.046875 L10.5625,470.046875 L13.7890625,478.5 L15.828125,478.5 Z M4.25,499.65625 C4.515625,499.65625 4.76302083,499.63151 4.9921875,499.582031 C5.22135417,499.532552 5.43098958,499.464844 5.62109375,499.378906 C5.81119792,499.292969 5.984375,499.192708 6.140625,499.078125 C6.296875,498.963542 6.43489583,498.841146 6.5546875,498.710938 C6.58072917,498.861979 6.61197917,499.005208 6.6484375,499.140625 C6.68489583,499.276042 6.72916667,499.395833 6.78125,499.5 L6.78125,499.5 L8.984375,499.5 L8.984375,499.367188 C8.875,499.153646 8.79166667,498.898438 8.734375,498.601563 C8.67708333,498.304688 8.6484375,497.929688 8.6484375,497.476563 L8.6484375,497.476563 L8.6484375,493.851563 C8.6484375,493.361979 8.55729167,492.93099 8.375,492.558594 C8.19270833,492.186198 7.94010417,491.877604 7.6171875,491.632813 C7.29427083,491.388021 6.91276042,491.203125 6.47265625,491.078125 C6.03255208,490.953125 5.55729167,490.890625 5.046875,490.890625 C4.47916667,490.890625 3.97526042,490.96224 3.53515625,491.105469 C3.09505208,491.248698 2.72265625,491.442708 2.41796875,491.6875 C2.11328125,491.932292 1.88151042,492.216146 1.72265625,492.539063 C1.56380208,492.861979 1.484375,493.203125 1.484375,493.5625 L1.484375,493.5625 L3.65625,493.5625 C3.65625,493.244792 3.7578125,492.990885 3.9609375,492.800781 C4.1640625,492.610677 4.48697917,492.515625 4.9296875,492.515625 C5.4296875,492.515625 5.8125,492.634115 6.078125,492.871094 C6.34375,493.108073 6.4765625,493.429688 6.4765625,493.835938 L6.4765625,493.835938 L6.4765625,494.335938 L5.265625,494.335938 C3.94791667,494.335938 2.95703125,494.579427 2.29296875,495.066406 C1.62890625,495.553385 1.296875,496.242188 1.296875,497.132813 C1.296875,497.497396 1.36979167,497.834635 1.515625,498.144531 C1.66145833,498.454427 1.86458333,498.721354 2.125,498.945313 C2.38541667,499.169271 2.69661458,499.34375 3.05859375,499.46875 C3.42057292,499.59375 3.81770833,499.65625 4.25,499.65625 Z M4.7109375,497.976563 C4.29427083,497.976563 3.98307292,497.880208 3.77734375,497.6875 C3.57161458,497.494792 3.46875,497.252604 3.46875,496.960938 C3.46875,496.768229 3.50520833,496.589844 3.578125,496.425781 C3.65104167,496.261719 3.76302083,496.121094 3.9140625,496.003906 C4.06510417,495.886719 4.26041667,495.795573 4.5,495.730469 C4.73958333,495.665365 5.02864583,495.632813 5.3671875,495.632813 L5.3671875,495.632813 L6.4765625,495.632813 L6.4765625,497.085938 C6.4140625,497.195313 6.328125,497.303385 6.21875,497.410156 C6.109375,497.516927 5.97916667,497.611979 5.828125,497.695313 C5.67708333,497.778646 5.5078125,497.846354 5.3203125,497.898438 C5.1328125,497.950521 4.9296875,497.976563 4.7109375,497.976563 Z M18.703125,499.5 L18.703125,497.734375 L16.28125,497.734375 L16.28125,487.5 L11.5546875,487.5 L11.5546875,489.273438 L14.0859375,489.273438 L14.0859375,497.734375 L11.5546875,497.734375 L11.5546875,499.5 L18.703125,499.5 Z" id="minicarnival" fill="#FEDEC9" fill-rule="nonzero"></path>
                    <path d="M122.53125,717.5 L123.601562,712.125 L124.710938,717.5 L126.617188,717.5 L128.132812,709.046875 L126.140625,709.046875 L125.40625,714.851563 L124.34375,709.046875 L122.890625,709.046875 L121.828125,714.875 L121.09375,709.046875 L119.109375,709.046875 L120.625,717.5 L122.53125,717.5 Z M133.304688,717.664063 C133.934896,717.664063 134.497396,717.55599 134.992188,717.339844 C135.486979,717.123698 135.903646,716.822917 136.242188,716.4375 C136.580729,716.052083 136.838542,715.597656 137.015625,715.074219 C137.192708,714.550781 137.28125,713.979167 137.28125,713.359375 L137.28125,713.359375 L137.28125,713.195313 C137.28125,712.580729 137.192708,712.011719 137.015625,711.488281 C136.838542,710.964844 136.579427,710.510417 136.238281,710.125 C135.897135,709.739583 135.479167,709.4375 134.984375,709.21875 C134.489583,709 133.924479,708.890625 133.289062,708.890625 C132.653646,708.890625 132.089844,709 131.597656,709.21875 C131.105469,709.4375 130.688802,709.739583 130.347656,710.125 C130.00651,710.510417 129.747396,710.964844 129.570312,711.488281 C129.393229,712.011719 129.304688,712.580729 129.304688,713.195313 L129.304688,713.195313 L129.304688,713.359375 C129.304688,713.979167 129.393229,714.550781 129.570312,715.074219 C129.747396,715.597656 130.00651,716.052083 130.347656,716.4375 C130.688802,716.822917 131.108073,717.123698 131.605469,717.339844 C132.102865,717.55599 132.669271,717.664063 133.304688,717.664063 Z M133.304688,715.921875 C132.976562,715.921875 132.696615,715.854167 132.464844,715.71875 C132.233073,715.583333 132.044271,715.39974 131.898438,715.167969 C131.752604,714.936198 131.645833,714.665365 131.578125,714.355469 C131.510417,714.045573 131.476562,713.713542 131.476562,713.359375 L131.476562,713.359375 L131.476562,713.195313 C131.476562,712.851563 131.510417,712.526042 131.578125,712.21875 C131.645833,711.911458 131.752604,711.640625 131.898438,711.40625 C132.044271,711.171875 132.231771,710.986979 132.460938,710.851563 C132.690104,710.716146 132.966146,710.648438 133.289062,710.648438 C133.617188,710.648438 133.895833,710.716146 134.125,710.851563 C134.354167,710.986979 134.540365,711.171875 134.683594,711.40625 C134.826823,711.640625 134.932292,711.911458 135,712.21875 C135.067708,712.526042 135.101562,712.851563 135.101562,713.195313 L135.101562,713.195313 L135.101562,713.359375 C135.101562,713.713542 135.067708,714.045573 135,714.355469 C134.932292,714.665365 134.826823,714.936198 134.683594,715.167969 C134.540365,715.39974 134.354167,715.583333 134.125,715.71875 C133.895833,715.854167 133.622396,715.921875 133.304688,715.921875 Z M123.3125,738.5 L123.3125,733.421875 C123.494792,732.984375 123.769531,732.648438 124.136719,732.414063 C124.503906,732.179688 124.992188,732.0625 125.601562,732.0625 C125.872396,732.0625 126.157552,732.079427 126.457031,732.113281 C126.75651,732.147135 127.049479,732.197917 127.335938,732.265625 L127.335938,732.265625 L127.65625,730.101563 C127.484375,730.049479 127.259115,730.001302 126.980469,729.957031 C126.701823,729.91276 126.398438,729.890625 126.070312,729.890625 C125.502604,729.890625 124.979167,730.027344 124.5,730.300781 C124.020833,730.574219 123.609375,730.950521 123.265625,731.429688 L123.265625,731.429688 L123.164062,730.046875 L121.140625,730.046875 L121.140625,738.5 L123.3125,738.5 Z M131.796875,738.5 L131.796875,735.921875 L132.78125,735.007813 L135.179688,738.5 L137.84375,738.5 L134.210938,733.570313 L137.398438,730.046875 L134.789062,730.046875 L132.453125,732.609375 L131.796875,733.359375 L131.796875,726.5 L129.625,726.5 L129.625,738.5 L131.796875,738.5 Z M123.757812,759.664063 C124.335938,759.664063 124.859375,759.60026 125.328125,759.472656 C125.796875,759.345052 126.196615,759.166667 126.527344,758.9375 C126.858073,758.708333 127.113281,758.436198 127.292969,758.121094 C127.472656,757.80599 127.5625,757.460938 127.5625,757.085938 C127.5625,756.679688 127.472656,756.329427 127.292969,756.035156 C127.113281,755.740885 126.864583,755.490885 126.546875,755.285156 C126.229167,755.079427 125.851562,754.911458 125.414062,754.78125 C124.976562,754.651042 124.502604,754.544271 123.992188,754.460938 C123.638021,754.408854 123.346354,754.347656 123.117188,754.277344 C122.888021,754.207031 122.707031,754.128906 122.574219,754.042969 C122.441406,753.957031 122.348958,753.860677 122.296875,753.753906 C122.244792,753.647135 122.21875,753.53125 122.21875,753.40625 C122.21875,753.140625 122.347656,752.916667 122.605469,752.734375 C122.863281,752.552083 123.244792,752.460938 123.75,752.460938 C124.291667,752.460938 124.695312,752.571615 124.960938,752.792969 C125.226562,753.014323 125.359375,753.289063 125.359375,753.617188 L125.359375,753.617188 L127.53125,753.617188 C127.53125,753.226563 127.445312,752.864583 127.273438,752.53125 C127.101562,752.197917 126.852865,751.910156 126.527344,751.667969 C126.201823,751.425781 125.804688,751.235677 125.335938,751.097656 C124.867188,750.959635 124.338542,750.890625 123.75,750.890625 C123.1875,750.890625 122.682292,750.960938 122.234375,751.101563 C121.786458,751.242188 121.40625,751.432292 121.09375,751.671875 C120.78125,751.911458 120.541667,752.190104 120.375,752.507813 C120.208333,752.825521 120.125,753.158854 120.125,753.507813 C120.125,753.867188 120.207031,754.184896 120.371094,754.460938 C120.535156,754.736979 120.763021,754.980469 121.054688,755.191406 C121.346354,755.402344 121.696615,755.582031 122.105469,755.730469 C122.514323,755.878906 122.966146,756.002604 123.460938,756.101563 C123.851562,756.174479 124.174479,756.247396 124.429688,756.320313 C124.684896,756.393229 124.889323,756.472656 125.042969,756.558594 C125.196615,756.644531 125.303385,756.736979 125.363281,756.835938 C125.423177,756.934896 125.453125,757.049479 125.453125,757.179688 C125.453125,757.450521 125.3125,757.671875 125.03125,757.84375 C124.75,758.015625 124.341146,758.101563 123.804688,758.101563 C123.570312,758.101563 123.342448,758.078125 123.121094,758.03125 C122.89974,757.984375 122.703125,757.910156 122.53125,757.808594 C122.359375,757.707031 122.21875,757.574219 122.109375,757.410156 C122,757.246094 121.9375,757.049479 121.921875,756.820313 L121.921875,756.820313 L119.851562,756.820313 C119.851562,757.164063 119.936198,757.50651 120.105469,757.847656 C120.27474,758.188802 120.523438,758.49349 120.851562,758.761719 C121.179688,759.029948 121.58724,759.247396 122.074219,759.414063 C122.561198,759.580729 123.122396,759.664063 123.757812,759.664063 Z M131.773438,759.5 L131.773438,753.398438 C131.945312,753.164063 132.165365,752.981771 132.433594,752.851563 C132.701823,752.721354 133.018229,752.65625 133.382812,752.65625 C133.632812,752.65625 133.856771,752.688802 134.054688,752.753906 C134.252604,752.81901 134.421875,752.919271 134.5625,753.054688 C134.703125,753.190104 134.811198,753.367188 134.886719,753.585938 C134.96224,753.804688 135,754.065104 135,754.367188 L135,754.367188 L135,759.5 L137.171875,759.5 L137.171875,754.382813 C137.171875,753.763021 137.097656,753.233073 136.949219,752.792969 C136.800781,752.352865 136.59375,751.992188 136.328125,751.710938 C136.0625,751.429688 135.744792,751.222656 135.375,751.089844 C135.005208,750.957031 134.598958,750.890625 134.15625,750.890625 C133.65625,750.890625 133.204427,751.007813 132.800781,751.242188 C132.397135,751.476563 132.054688,751.799479 131.773438,752.210938 L131.773438,752.210938 L131.773438,747.5 L129.601562,747.5 L129.601562,759.5 L131.773438,759.5 Z M123.703125,780.664063 C124.333333,780.664063 124.895833,780.55599 125.390625,780.339844 C125.885417,780.123698 126.302083,779.822917 126.640625,779.4375 C126.979167,779.052083 127.236979,778.597656 127.414062,778.074219 C127.591146,777.550781 127.679688,776.979167 127.679688,776.359375 L127.679688,776.359375 L127.679688,776.195313 C127.679688,775.580729 127.591146,775.011719 127.414062,774.488281 C127.236979,773.964844 126.977865,773.510417 126.636719,773.125 C126.295573,772.739583 125.877604,772.4375 125.382812,772.21875 C124.888021,772 124.322917,771.890625 123.6875,771.890625 C123.052083,771.890625 122.488281,772 121.996094,772.21875 C121.503906,772.4375 121.08724,772.739583 120.746094,773.125 C120.404948,773.510417 120.145833,773.964844 119.96875,774.488281 C119.791667,775.011719 119.703125,775.580729 119.703125,776.195313 L119.703125,776.195313 L119.703125,776.359375 C119.703125,776.979167 119.791667,777.550781 119.96875,778.074219 C120.145833,778.597656 120.404948,779.052083 120.746094,779.4375 C121.08724,779.822917 121.50651,780.123698 122.003906,780.339844 C122.501302,780.55599 123.067708,780.664063 123.703125,780.664063 Z M123.703125,778.921875 C123.375,778.921875 123.095052,778.854167 122.863281,778.71875 C122.63151,778.583333 122.442708,778.39974 122.296875,778.167969 C122.151042,777.936198 122.044271,777.665365 121.976562,777.355469 C121.908854,777.045573 121.875,776.713542 121.875,776.359375 L121.875,776.359375 L121.875,776.195313 C121.875,775.851563 121.908854,775.526042 121.976562,775.21875 C122.044271,774.911458 122.151042,774.640625 122.296875,774.40625 C122.442708,774.171875 122.630208,773.986979 122.859375,773.851563 C123.088542,773.716146 123.364583,773.648438 123.6875,773.648438 C124.015625,773.648438 124.294271,773.716146 124.523438,773.851563 C124.752604,773.986979 124.938802,774.171875 125.082031,774.40625 C125.22526,774.640625 125.330729,774.911458 125.398438,775.21875 C125.466146,775.526042 125.5,775.851563 125.5,776.195313 L125.5,776.195313 L125.5,776.359375 C125.5,776.713542 125.466146,777.045573 125.398438,777.355469 C125.330729,777.665365 125.22526,777.936198 125.082031,778.167969 C124.938802,778.39974 124.752604,778.583333 124.523438,778.71875 C124.294271,778.854167 124.020833,778.921875 123.703125,778.921875 Z M131.804688,783.75 L131.804688,779.765625 C132.059896,780.046875 132.359375,780.265625 132.703125,780.421875 C133.046875,780.578125 133.445312,780.65625 133.898438,780.65625 C134.429688,780.65625 134.901042,780.546875 135.3125,780.328125 C135.723958,780.109375 136.06901,779.808594 136.347656,779.425781 C136.626302,779.042969 136.83724,778.588542 136.980469,778.0625 C137.123698,777.536458 137.195312,776.966146 137.195312,776.351563 L137.195312,776.351563 L137.195312,776.1875 C137.195312,775.546875 137.123698,774.96224 136.980469,774.433594 C136.83724,773.904948 136.625,773.451823 136.34375,773.074219 C136.0625,772.696615 135.716146,772.404948 135.304688,772.199219 C134.893229,771.99349 134.419271,771.890625 133.882812,771.890625 C133.408854,771.890625 132.994792,771.976563 132.640625,772.148438 C132.286458,772.320313 131.979167,772.5625 131.71875,772.875 L131.71875,772.875 L131.640625,772.046875 L129.632812,772.046875 L129.632812,783.75 L131.804688,783.75 Z M133.320312,778.914063 C132.929688,778.914063 132.613281,778.834635 132.371094,778.675781 C132.128906,778.516927 131.940104,778.304688 131.804688,778.039063 L131.804688,778.039063 L131.804688,774.507813 C131.940104,774.236979 132.128906,774.027344 132.371094,773.878906 C132.613281,773.730469 132.924479,773.65625 133.304688,773.65625 C133.611979,773.65625 133.873698,773.721354 134.089844,773.851563 C134.30599,773.981771 134.483073,774.160156 134.621094,774.386719 C134.759115,774.613281 134.860677,774.88151 134.925781,775.191406 C134.990885,775.501302 135.023438,775.833333 135.023438,776.1875 L135.023438,776.1875 L135.023438,776.351563 C135.023438,776.700521 134.992188,777.029948 134.929688,777.339844 C134.867188,777.64974 134.768229,777.921875 134.632812,778.15625 C134.497396,778.390625 134.321615,778.575521 134.105469,778.710938 C133.889323,778.846354 133.627604,778.914063 133.320312,778.914063 Z" id="workshop" fill="#B4DFE7" fill-rule="nonzero"></path>
                </g>
            </g>
        </g>
    </g>
</svg>