<?xml version="1.0" encoding="UTF-8"?>
<svg width="261px" height="104px" viewBox="0 0 261 104" version="1.1" xmlns="http://www.w3.org/2000/svg" xmlns:xlink="http://www.w3.org/1999/xlink">
    <title>register</title>
    <defs>
        <filter x="-9.6%" y="-33.9%" width="119.2%" height="167.7%" filterUnits="objectBoundingBox" id="filter-1">
            <feGaussianBlur stdDeviation="7" in="SourceGraphic"></feGaussianBlur>
        </filter>
    </defs>
    <g id="Page-1" stroke="none" stroke-width="1" fill="none" fill-rule="evenodd">
        <g id="Desktop" transform="translate(-378.000000, -407.000000)">
            <g id="home-page" transform="translate(7.000000, 0.000000)">
                <g id="register" transform="translate(384.000000, 423.000000)">
                    <g id="Group" transform="translate(8.000000, 5.000000)" fill="#008297" fill-opacity="0.4">
                        <rect id="Rectangle" filter="url(#filter-1)" x="0" y="0" width="219" height="62" rx="19"></rect>
                    </g>
                    <g id="desktop_register">
                        <g id="Group">
                            <rect id="Rectangle" fill="#008297" x="0" y="0" width="219" height="62" rx="19"></rect>
                            <path d="M45.5322266,41 L45.5322266,30.8339844 C45.9033203,29.7988281 46.4819336,28.9931641 47.2680664,28.4169922 C48.0541992,27.8408203 49.0820312,27.5527344 50.3515625,27.5527344 C50.8691406,27.5527344 51.3647461,27.5795898 51.8383789,27.6333008 C52.3120117,27.6870117 52.8125,27.7724609 53.3398438,27.8896484 L53.3398438,27.8896484 L53.7060547,25.2382812 C53.5693359,25.1796875 53.3959961,25.1259766 53.1860352,25.0771484 C52.9760742,25.0283203 52.746582,24.9868164 52.4975586,24.9526367 C52.2485352,24.918457 51.9873047,24.894043 51.7138672,24.8793945 C51.4404297,24.8647461 51.1767578,24.8574219 50.9228516,24.8574219 C49.7705078,24.8574219 48.7426758,25.1088867 47.8393555,25.6118164 C46.9360352,26.1147461 46.1621094,26.8007812 45.5175781,27.6699219 L45.5175781,27.6699219 L45.3857422,25.1503906 L42.8076172,25.1503906 L42.8076172,41 L45.5322266,41 Z M65.5419922,41.2929688 C66.3134766,41.2929688 67.0263672,41.2075195 67.6806641,41.0366211 C68.3349609,40.8657227 68.9208984,40.6386719 69.4384766,40.3554688 C69.9560547,40.0722656 70.4125977,39.7475586 70.8081055,39.3813477 C71.2036133,39.0151367 71.5332031,38.6318359 71.796875,38.2314453 L71.796875,38.2314453 L70.1416016,36.9423828 C69.6435547,37.5869141 69.0185547,38.1044922 68.2666016,38.4951172 C67.5146484,38.8857422 66.6552734,39.0810547 65.6884766,39.0810547 C64.9560547,39.0810547 64.2871094,38.9443359 63.6816406,38.6708984 C63.0761719,38.3974609 62.5561523,38.0239258 62.121582,37.550293 C61.6870117,37.0766602 61.3452148,36.5224609 61.0961914,35.8876953 C60.847168,35.2529297 60.7080078,34.5742188 60.6787109,33.8515625 L60.6787109,33.8515625 L72.0019531,33.8515625 L72.0019531,32.6357422 C72.0019531,31.5322266 71.862793,30.5068359 71.5844727,29.5595703 C71.3061523,28.6123047 70.8837891,27.7895508 70.3173828,27.0913086 C69.7509766,26.3930664 69.0405273,25.8461914 68.1860352,25.4506836 C67.331543,25.0551758 66.3330078,24.8574219 65.1904297,24.8574219 C64.2822266,24.8574219 63.3959961,25.0429688 62.5317383,25.4140625 C61.6674805,25.7851562 60.8959961,26.3198242 60.2172852,27.0180664 C59.5385742,27.7163086 58.9941406,28.5708008 58.5839844,29.581543 C58.1738281,30.5922852 57.96875,31.7373047 57.96875,33.0166016 L57.96875,33.0166016 L57.96875,33.6318359 C57.96875,34.7353516 58.1542969,35.7558594 58.5253906,36.6933594 C58.8964844,37.6308594 59.4140625,38.4414062 60.078125,39.125 C60.7421875,39.8085938 61.5405273,40.3408203 62.4731445,40.7216797 C63.4057617,41.1025391 64.4287109,41.2929688 65.5419922,41.2929688 Z M69.2919922,31.625 L60.7666016,31.625 C60.8740234,30.8925781 61.0620117,30.2456055 61.3305664,29.684082 C61.5991211,29.1225586 61.9287109,28.6489258 62.3193359,28.2631836 C62.7099609,27.8774414 63.1494141,27.5844727 63.6376953,27.3842773 C64.1259766,27.184082 64.6435547,27.0839844 65.1904297,27.0839844 C65.8837891,27.0839844 66.4819336,27.2109375 66.9848633,27.4648438 C67.487793,27.71875 67.9052734,28.0507812 68.2373047,28.4609375 C68.5693359,28.8710938 68.8208008,29.3349609 68.9916992,29.8525391 C69.1625977,30.3701172 69.2626953,30.8925781 69.2919922,31.4199219 L69.2919922,31.4199219 L69.2919922,31.625 Z M82.7099609,47.2402344 C83.7060547,47.2402344 84.6142578,47.09375 85.4345703,46.8007812 C86.2548828,46.5078125 86.9604492,46.078125 87.5512695,45.5117188 C88.1420898,44.9453125 88.6010742,44.2568359 88.9282227,43.4462891 C89.2553711,42.6357422 89.4189453,41.7080078 89.4189453,40.6630859 L89.4189453,40.6630859 L89.4189453,25.1503906 L86.9580078,25.1503906 L86.8261719,26.8789062 C86.3085938,26.2246094 85.6811523,25.7241211 84.9438477,25.3774414 C84.206543,25.0307617 83.3496094,24.8574219 82.3730469,24.8574219 C81.3867188,24.8574219 80.5029297,25.0576172 79.7216797,25.4580078 C78.9404297,25.8583984 78.2763672,26.4150391 77.7294922,27.1279297 C77.1826172,27.8408203 76.7651367,28.6928711 76.4770508,29.684082 C76.1889648,30.675293 76.0449219,31.7617188 76.0449219,32.9433594 L76.0449219,32.9433594 L76.0449219,33.2509766 C76.0449219,34.3837891 76.1914062,35.440918 76.484375,36.4223633 C76.7773438,37.4038086 77.1948242,38.2558594 77.7368164,38.9785156 C78.2788086,39.7011719 78.9404297,40.2675781 79.7216797,40.6777344 C80.5029297,41.0878906 81.3769531,41.2929688 82.34375,41.2929688 C83.2910156,41.2929688 84.1235352,41.1342773 84.8413086,40.8168945 C85.559082,40.4995117 86.1816406,40.0380859 86.7089844,39.4326172 L86.7089844,39.4326172 L86.7089844,40.7949219 C86.7089844,41.4785156 86.6113281,42.0839844 86.4160156,42.6113281 C86.2207031,43.1386719 85.9399414,43.5805664 85.5737305,43.9370117 C85.2075195,44.293457 84.765625,44.5644531 84.2480469,44.75 C83.7304688,44.9355469 83.1494141,45.0283203 82.5048828,45.0283203 C82.1435547,45.0283203 81.7822266,44.9916992 81.4208984,44.918457 C81.0595703,44.8452148 80.6982422,44.7255859 80.3369141,44.5595703 C79.9755859,44.3935547 79.6191406,44.1713867 79.2675781,43.8930664 C78.9160156,43.6147461 78.5742188,43.2753906 78.2421875,42.875 L78.2421875,42.875 L76.8359375,44.5009766 C77.1972656,45.0185547 77.6293945,45.453125 78.1323242,45.8046875 C78.6352539,46.15625 79.1577148,46.4370117 79.699707,46.6469727 C80.2416992,46.8569336 80.7763672,47.0083008 81.3037109,47.1010742 C81.8310547,47.1938477 82.2998047,47.2402344 82.7099609,47.2402344 Z M83.0175781,38.9931641 C82.265625,38.9931641 81.6210938,38.8393555 81.0839844,38.5317383 C80.546875,38.2241211 80.1049805,37.8066406 79.7583008,37.2792969 C79.4116211,36.7519531 79.1577148,36.1416016 78.996582,35.4482422 C78.8354492,34.7548828 78.7548828,34.0224609 78.7548828,33.2509766 L78.7548828,33.2509766 L78.7548828,32.9433594 C78.7548828,32.171875 78.8354492,31.4370117 78.996582,30.7387695 C79.1577148,30.0405273 79.4116211,29.425293 79.7583008,28.8930664 C80.1049805,28.3608398 80.5493164,27.9384766 81.0913086,27.6259766 C81.6333008,27.3134766 82.2851562,27.1572266 83.046875,27.1572266 C83.4960938,27.1572266 83.90625,27.2133789 84.2773438,27.3256836 C84.6484375,27.4379883 84.9853516,27.5942383 85.2880859,27.7944336 C85.5908203,27.9946289 85.859375,28.2314453 86.09375,28.5048828 C86.328125,28.7783203 86.5332031,29.0810547 86.7089844,29.4130859 L86.7089844,29.4130859 L86.7089844,36.6787109 C86.5332031,37.0205078 86.328125,37.3330078 86.09375,37.6162109 C85.859375,37.8994141 85.5932617,38.1435547 85.2954102,38.3486328 C84.9975586,38.5537109 84.6606445,38.7124023 84.284668,38.824707 C83.9086914,38.9370117 83.4863281,38.9931641 83.0175781,38.9931641 Z M101.635742,22.5283203 C102.172852,22.5283203 102.578125,22.3818359 102.851562,22.0888672 C103.125,21.7958984 103.261719,21.4296875 103.261719,20.9902344 C103.261719,20.5410156 103.125,20.1625977 102.851562,19.8549805 C102.578125,19.5473633 102.172852,19.3935547 101.635742,19.3935547 C101.088867,19.3935547 100.681152,19.5473633 100.412598,19.8549805 C100.144043,20.1625977 100.009766,20.5410156 100.009766,20.9902344 C100.009766,21.4296875 100.144043,21.7958984 100.412598,22.0888672 C100.681152,22.3818359 101.088867,22.5283203 101.635742,22.5283203 Z M108.242188,41 L108.242188,38.65625 L103.071289,38.65625 L103.071289,25.1503906 L94.9707031,25.1503906 L94.9707031,27.5087891 L100.361328,27.5087891 L100.361328,38.65625 L94.9707031,38.65625 L94.9707031,41 L108.242188,41 Z M119.360352,41.2929688 C120.297852,41.2929688 121.162109,41.1806641 121.953125,40.9560547 C122.744141,40.7314453 123.422852,40.4140625 123.989258,40.0039062 C124.555664,39.59375 124.997559,39.1005859 125.314941,38.5244141 C125.632324,37.9482422 125.791016,37.3085938 125.791016,36.6054688 C125.791016,35.9511719 125.651855,35.375 125.373535,34.8769531 C125.095215,34.3789062 124.692383,33.9418945 124.165039,33.565918 C123.637695,33.1899414 122.988281,32.8676758 122.216797,32.5991211 C121.445312,32.3305664 120.571289,32.09375 119.594727,31.8886719 C118.852539,31.7421875 118.239746,31.5908203 117.756348,31.4345703 C117.272949,31.2783203 116.887207,31.1025391 116.599121,30.9072266 C116.311035,30.7119141 116.108398,30.4921875 115.991211,30.2480469 C115.874023,30.0039062 115.81543,29.7255859 115.81543,29.4130859 C115.81543,29.1103516 115.888672,28.8173828 116.035156,28.5341797 C116.181641,28.2509766 116.398926,28.0019531 116.687012,27.7871094 C116.975098,27.5722656 117.336426,27.4013672 117.770996,27.2744141 C118.205566,27.1474609 118.710938,27.0839844 119.287109,27.0839844 C119.84375,27.0839844 120.344238,27.1621094 120.788574,27.3183594 C121.23291,27.4746094 121.611328,27.6796875 121.923828,27.9335938 C122.236328,28.1875 122.480469,28.4780273 122.65625,28.8051758 C122.832031,29.1323242 122.919922,29.4667969 122.919922,29.8085938 L122.919922,29.8085938 L125.629883,29.8085938 C125.629883,29.1152344 125.480957,28.4682617 125.183105,27.8676758 C124.885254,27.2670898 124.462891,26.7421875 123.916016,26.2929688 C123.369141,25.84375 122.705078,25.4921875 121.923828,25.2382812 C121.142578,24.984375 120.263672,24.8574219 119.287109,24.8574219 C118.378906,24.8574219 117.546387,24.9794922 116.789551,25.2236328 C116.032715,25.4677734 115.380859,25.7998047 114.833984,26.2197266 C114.287109,26.6396484 113.862305,27.1303711 113.55957,27.6918945 C113.256836,28.253418 113.105469,28.8564453 113.105469,29.5009766 C113.105469,30.1552734 113.251953,30.7290039 113.544922,31.222168 C113.837891,31.715332 114.250488,32.1450195 114.782715,32.5112305 C115.314941,32.8774414 115.95459,33.1923828 116.70166,33.4560547 C117.44873,33.7197266 118.276367,33.9443359 119.18457,34.1298828 C119.926758,34.2763672 120.546875,34.4399414 121.044922,34.6206055 C121.542969,34.8012695 121.943359,34.9990234 122.246094,35.2138672 C122.548828,35.4287109 122.763672,35.6655273 122.890625,35.9243164 C123.017578,36.1831055 123.081055,36.4736328 123.081055,36.7958984 C123.071289,37.4892578 122.734375,38.0458984 122.070312,38.4658203 C121.40625,38.8857422 120.50293,39.0957031 119.360352,39.0957031 C118.901367,39.0957031 118.4375,39.046875 117.96875,38.9492188 C117.5,38.8515625 117.072754,38.6855469 116.687012,38.4511719 C116.30127,38.2167969 115.979004,37.9091797 115.720215,37.5283203 C115.461426,37.1474609 115.3125,36.6787109 115.273438,36.1220703 L115.273438,36.1220703 L112.563477,36.1220703 C112.563477,36.7958984 112.717285,37.4453125 113.024902,38.0703125 C113.33252,38.6953125 113.776855,39.2446289 114.35791,39.7182617 C114.938965,40.1918945 115.649414,40.5727539 116.489258,40.8608398 C117.329102,41.1489258 118.286133,41.2929688 119.360352,41.2929688 Z M139.25293,41.2929688 C139.672852,41.2929688 140.095215,41.2734375 140.52002,41.234375 C140.944824,41.1953125 141.347656,41.1391602 141.728516,41.065918 C142.109375,40.9926758 142.460938,40.9047852 142.783203,40.8022461 C143.105469,40.699707 143.378906,40.5800781 143.603516,40.4433594 L143.603516,40.4433594 L143.222656,38.5244141 C143.056641,38.5634766 142.844238,38.6098633 142.585449,38.6635742 C142.32666,38.7172852 142.04834,38.7685547 141.750488,38.8173828 C141.452637,38.8662109 141.147461,38.9077148 140.834961,38.9418945 C140.522461,38.9760742 140.219727,38.9931641 139.926758,38.9931641 C139.526367,38.9931641 139.147949,38.9443359 138.791504,38.8466797 C138.435059,38.7490234 138.120117,38.5805664 137.84668,38.3413086 C137.573242,38.1020508 137.358398,37.7822266 137.202148,37.3818359 C137.045898,36.9814453 136.967773,36.4736328 136.967773,35.8583984 L136.967773,35.8583984 L136.967773,27.2451172 L143.00293,27.2451172 L143.00293,25.1503906 L136.967773,25.1503906 L136.967773,21.3125 L134.243164,21.3125 L134.243164,25.1503906 L130.083008,25.1503906 L130.083008,27.2451172 L134.243164,27.2451172 L134.243164,35.8583984 C134.243164,36.8349609 134.372559,37.6674805 134.631348,38.355957 C134.890137,39.0444336 135.244141,39.605957 135.693359,40.0405273 C136.142578,40.4750977 136.672363,40.7924805 137.282715,40.9926758 C137.893066,41.1928711 138.549805,41.2929688 139.25293,41.2929688 Z M155.556641,41.2929688 C156.328125,41.2929688 157.041016,41.2075195 157.695312,41.0366211 C158.349609,40.8657227 158.935547,40.6386719 159.453125,40.3554688 C159.970703,40.0722656 160.427246,39.7475586 160.822754,39.3813477 C161.218262,39.0151367 161.547852,38.6318359 161.811523,38.2314453 L161.811523,38.2314453 L160.15625,36.9423828 C159.658203,37.5869141 159.033203,38.1044922 158.28125,38.4951172 C157.529297,38.8857422 156.669922,39.0810547 155.703125,39.0810547 C154.970703,39.0810547 154.301758,38.9443359 153.696289,38.6708984 C153.09082,38.3974609 152.570801,38.0239258 152.13623,37.550293 C151.70166,37.0766602 151.359863,36.5224609 151.11084,35.8876953 C150.861816,35.2529297 150.722656,34.5742188 150.693359,33.8515625 L150.693359,33.8515625 L162.016602,33.8515625 L162.016602,32.6357422 C162.016602,31.5322266 161.877441,30.5068359 161.599121,29.5595703 C161.320801,28.6123047 160.898438,27.7895508 160.332031,27.0913086 C159.765625,26.3930664 159.055176,25.8461914 158.200684,25.4506836 C157.346191,25.0551758 156.347656,24.8574219 155.205078,24.8574219 C154.296875,24.8574219 153.410645,25.0429688 152.546387,25.4140625 C151.682129,25.7851562 150.910645,26.3198242 150.231934,27.0180664 C149.553223,27.7163086 149.008789,28.5708008 148.598633,29.581543 C148.188477,30.5922852 147.983398,31.7373047 147.983398,33.0166016 L147.983398,33.0166016 L147.983398,33.6318359 C147.983398,34.7353516 148.168945,35.7558594 148.540039,36.6933594 C148.911133,37.6308594 149.428711,38.4414062 150.092773,39.125 C150.756836,39.8085938 151.555176,40.3408203 152.487793,40.7216797 C153.42041,41.1025391 154.443359,41.2929688 155.556641,41.2929688 Z M159.306641,31.625 L150.78125,31.625 C150.888672,30.8925781 151.07666,30.2456055 151.345215,29.684082 C151.61377,29.1225586 151.943359,28.6489258 152.333984,28.2631836 C152.724609,27.8774414 153.164062,27.5844727 153.652344,27.3842773 C154.140625,27.184082 154.658203,27.0839844 155.205078,27.0839844 C155.898438,27.0839844 156.496582,27.2109375 156.999512,27.4648438 C157.502441,27.71875 157.919922,28.0507812 158.251953,28.4609375 C158.583984,28.8710938 158.835449,29.3349609 159.006348,29.8525391 C159.177246,30.3701172 159.277344,30.8925781 159.306641,31.4199219 L159.306641,31.4199219 L159.306641,31.625 Z M171.552734,41 L171.552734,30.8339844 C171.923828,29.7988281 172.502441,28.9931641 173.288574,28.4169922 C174.074707,27.8408203 175.102539,27.5527344 176.37207,27.5527344 C176.889648,27.5527344 177.385254,27.5795898 177.858887,27.6333008 C178.33252,27.6870117 178.833008,27.7724609 179.360352,27.8896484 L179.360352,27.8896484 L179.726562,25.2382812 C179.589844,25.1796875 179.416504,25.1259766 179.206543,25.0771484 C178.996582,25.0283203 178.76709,24.9868164 178.518066,24.9526367 C178.269043,24.918457 178.007812,24.894043 177.734375,24.8793945 C177.460938,24.8647461 177.197266,24.8574219 176.943359,24.8574219 C175.791016,24.8574219 174.763184,25.1088867 173.859863,25.6118164 C172.956543,26.1147461 172.182617,26.8007812 171.538086,27.6699219 L171.538086,27.6699219 L171.40625,25.1503906 L168.828125,25.1503906 L168.828125,41 L171.552734,41 Z" id="register" fill="#FFFFFF" fill-rule="nonzero"></path>
                        </g>
                    </g>
                </g>
            </g>
        </g>
    </g>
</svg>