<?xml version="1.0" encoding="UTF-8"?>
<svg width="726px" height="105px" viewBox="0 0 726 105" version="1.1" xmlns="http://www.w3.org/2000/svg" xmlns:xlink="http://www.w3.org/1999/xlink">
    <title>revolutionnaire</title>
    <defs>
        <polygon id="path-1" points="0.9754 0.2058 53.753 0.2058 53.753 52.6608 0.9754 52.6608"></polygon>
        <polygon id="path-3" points="0.8868 0.518 46.9998 0.518 46.9998 90.1387 0.8868 90.1387"></polygon>
        <polygon id="path-5" points="0 104.482 725.753 104.482 725.753 1 0 1"></polygon>
    </defs>
    <g id="Page-1" stroke="none" stroke-width="1" fill="none" fill-rule="evenodd">
        <g id="Desktop" transform="translate(-111.000000, -306.000000)">
            <g id="home-page" transform="translate(7.000000, 0.000000)">
                <g id="Group-8">
                    <g id="revolutionnaire" transform="translate(104.000000, 306.000000)">
                        <path d="M0.0001,85.9267 L7.1641,85.9267 L7.1641,31.8677 L0.0001,31.8677 L0.0001,29.3927 L7.8151,29.3927 C16.2831,29.3927 26.1831,29.1327 30.6121,27.0477 L30.6121,38.2507 L30.8721,38.2507 C33.8681,31.4767 39.7301,27.0477 47.6761,27.0477 C55.8821,27.0477 60.8331,32.2587 60.8331,39.5527 C60.8331,46.1967 56.0131,51.2767 49.1091,51.2767 C42.8561,51.2767 38.1671,47.1087 38.1671,40.7257 C38.1671,36.6877 39.6001,32.6497 42.9871,30.5657 L42.9871,30.3047 C34.7801,33.1707 30.6121,41.3777 30.6121,52.0587 L30.6121,85.9267 L37.7761,85.9267 L37.7761,88.4017 L0.0001,88.4017 L0.0001,85.9267 Z" id="Fill-1" fill="#5FB6C6"></path>
                        <polygon id="Fill-3" fill="#F4A795" points="60.6031 46.8354 87.8481 46.8354 87.8481 52.6204 66.9261 52.6204 66.9261 66.8154 87.2431 66.8154 87.2431 72.6004 66.9261 72.6004 66.9261 91.7734 87.8481 91.7734 87.8481 97.5584 60.6031 97.5584"></polygon>
                        <g id="Group-7" transform="translate(672.000000, 35.482000)">
                            <mask id="mask-2" fill="white">
                                <use xlink:href="#path-1"></use>
                            </mask>
                            <g id="Clip-6"></g>
                            <path d="M34.4444,22.8398 L34.4444,11.0398 C34.4444,6.4268 32.9424,2.2438 28.3304,2.2438 C23.7164,2.2438 22.2154,5.2478 22.2154,13.8298 L22.2154,22.8398 L34.4444,22.8398 Z M22.2154,24.8778 L22.2154,35.9268 C22.2154,46.8678 26.1834,49.9788 32.7274,49.9788 C41.4174,49.9788 48.4964,42.4698 51.2864,34.7468 L53.3234,35.3908 C49.0334,46.7608 41.6314,52.6608 29.2954,52.6608 C12.9904,52.6608 0.9754,42.0408 0.9754,26.7018 C0.9754,10.9328 12.9904,0.2058 28.4374,0.2058 C43.1324,0.2058 53.7534,11.3618 53.7534,24.8778 L22.2154,24.8778 Z" id="Fill-5" fill="#008297" mask="url(#mask-2)"></path>
                        </g>
                        <path d="M143.3844,20.4204 L143.3844,22.9514 C141.7804,23.3754 140.2614,24.3654 138.8284,25.9254 C137.3924,27.4874 136.0004,30.1244 134.6524,33.8364 L116.1744,86.1054 C114.8234,86.0204 113.4524,85.9794 112.0604,85.9794 C110.6684,85.9794 109.2964,86.0204 107.9474,86.1054 L85.4194,30.1654 C84.0694,26.8754 82.7404,24.8724 81.4324,24.1544 C80.1234,23.4384 79.0084,23.0784 78.0794,23.0784 L78.0794,20.4204 C80.7784,20.5904 83.5844,20.7364 86.4954,20.8634 C89.4064,20.9894 92.5904,21.0534 96.0514,21.0534 C98.6654,21.0534 101.4294,20.9894 104.3404,20.8634 C107.2514,20.7364 109.9724,20.5904 112.5044,20.4204 L112.5044,23.0784 C110.7314,23.0784 109.1494,23.1634 107.7584,23.3314 C106.3654,23.5014 105.4164,24.0484 104.9104,24.9764 C104.4044,25.9054 104.4864,27.5514 105.1634,29.9124 L119.9704,69.1464 L118.7054,70.9184 L128.7034,43.2014 C131.0644,36.3664 131.4444,31.3674 129.8424,28.2034 C128.2384,25.0394 125.4544,23.2904 121.4894,22.9514 L121.4894,20.4204 C123.4294,20.5054 125.5174,20.5904 127.7544,20.6734 C129.9884,20.7584 131.9504,20.7994 133.6394,20.7994 C135.3264,20.7994 137.0984,20.7584 138.9554,20.6734 C140.8094,20.5904 142.2864,20.5054 143.3844,20.4204" id="Fill-8" fill="#003D8E"></path>
                        <path d="M149.7833,50.0898 C149.7833,57.9218 156.1023,64.5958 164.0233,64.5958 C171.9433,64.5958 178.2623,57.9218 178.2623,50.0898 C178.2623,42.1688 171.9433,35.5828 164.0233,35.5828 C156.1023,35.5828 149.7833,42.1688 149.7833,50.0898 M186.2723,50.0898 C186.2723,62.6378 176.4823,72.2498 164.0233,72.2498 C151.5633,72.2498 141.7733,62.6378 141.7733,50.0898 C141.7733,37.5408 151.5633,27.9288 164.0233,27.9288 C176.4823,27.9288 186.2723,37.5408 186.2723,50.0898" id="Fill-10" fill="#5FB6C6"></path>
                        <path d="M232.5206,11.0908 L232.5206,13.6228 C229.6506,13.7078 227.4786,14.0238 226.0026,14.5708 C224.5256,15.1208 223.5356,16.1338 223.0286,17.6088 C222.5226,19.0858 222.2696,21.3858 222.2696,24.5068 L222.2696,88.7998 C222.2696,91.4158 222.4596,93.3558 222.8386,94.6208 C223.2186,95.8868 223.9776,96.7308 225.1166,97.1528 C226.2556,97.5758 227.9646,97.7848 230.2426,97.7848 L236.4446,97.7848 C240.3236,97.7848 243.8476,96.6048 247.0116,94.2408 C250.1756,91.8808 252.8336,88.5678 254.9856,84.3068 C257.1366,80.0468 258.6336,75.1308 259.4786,69.5618 L262.3896,69.5618 C262.1356,72.4308 262.0096,76.1438 262.0096,80.6998 C262.0096,82.6418 262.0506,85.4668 262.1356,89.1788 C262.2196,92.8928 262.4726,96.7308 262.8956,100.6958 C258.5926,100.5278 253.7396,100.4238 248.3406,100.3798 C242.9406,100.3378 238.1306,100.3168 233.9126,100.3168 L222.5226,100.3168 C217.7966,100.3168 212.7776,100.3378 207.4616,100.3798 C202.1456,100.4238 197.2096,100.5278 192.6536,100.6958 L192.6536,98.1648 C195.3536,97.9968 197.3786,97.6588 198.7286,97.1528 C200.0776,96.6458 200.9856,95.6338 201.4496,94.1148 C201.9126,92.5958 202.1456,90.3188 202.1456,87.2808 L202.1456,24.5068 C202.1456,21.3858 201.9126,19.0858 201.4496,17.6088 C200.9856,16.1338 200.0586,15.1208 198.6666,14.5708 C197.2736,14.0238 195.2686,13.7078 192.6536,13.6228 L192.6536,11.0908 C194.7616,11.1758 197.6096,11.2608 201.1966,11.3438 C204.7816,11.4288 208.6006,11.4708 212.6506,11.4708 C216.3626,11.4708 220.0116,11.4288 223.5986,11.3438 C227.1836,11.2608 230.1576,11.1758 232.5206,11.0908" id="Fill-12" fill="#008297"></path>
                        <path d="M254.318,21.4131 L254.318,44.4631 C254.318,51.1381 256.009,57.0121 263.93,57.0121 C271.85,57.0121 273.541,51.1381 273.541,44.4631 L273.541,21.4131 L281.551,21.4131 L281.551,45.3531 C281.551,56.7451 276.211,64.4881 263.93,64.4881 C251.648,64.4881 246.308,56.7451 246.308,45.3531 L246.308,21.4131 L254.318,21.4131 Z" id="Fill-14" fill="#F4A795"></path>
                        <g id="Group-18" transform="translate(287.000000, 0.482000)">
                            <mask id="mask-4" fill="white">
                                <use xlink:href="#path-3"></use>
                            </mask>
                            <g id="Clip-17"></g>
                            <path d="M4.5338,29.6967 L13.5218,29.6967 L18.6028,11.4597 C27.9818,8.8547 37.4908,5.5977 45.9578,0.5177 L37.4908,29.6967 L46.9998,29.6967 L46.2178,32.1717 L36.9698,32.1717 L25.1158,73.8567 C24.3338,76.3307 23.8128,79.3267 23.8128,79.9787 C23.8128,81.1507 24.7248,82.3227 25.8968,82.3227 C29.9348,82.3227 33.5828,76.4617 35.7968,73.5957 L37.7508,75.2887 C35.4068,77.6337 29.9348,90.1387 14.6948,90.1387 C7.7908,90.1387 0.8868,86.4907 0.8868,78.8057 C0.8868,75.0277 2.9708,67.2127 4.2738,62.5227 L12.8708,32.1717 L3.7528,32.1717 L4.5338,29.6967 Z" id="Fill-16" fill="#FEDEC9" mask="url(#mask-4)"></path>
                        </g>
                        <path d="M345.3116,28.6611 C349.5566,28.6611 353.0516,32.1571 353.0516,36.4011 C353.0516,40.6461 349.5566,44.1411 345.3116,44.1411 C341.0676,44.1411 337.5716,40.6461 337.5716,36.4011 C337.5716,32.1571 341.0676,28.6611 345.3116,28.6611 L345.3116,28.6611 Z M333.2436,86.8371 L337.8216,86.8371 L337.8216,52.2981 L333.2436,52.2981 L333.2436,50.7161 L338.2376,50.7161 C343.6476,50.7161 349.9726,50.5501 352.8026,49.2181 L352.8026,86.8371 L357.3796,86.8371 L357.3796,88.4181 L333.2436,88.4181 L333.2436,86.8371 Z" id="Fill-19" fill="#003D8E"></path>
                        <polygon id="Fill-21" fill="#5FB6C6" points="441.2706 19.0757 449.8476 19.0757 475.1716 61.7157 475.3336 61.7157 481.8066 20.6947 493.7016 20.6947 483.9106 82.9137 475.3336 82.9137 449.9286 40.2747 449.7666 40.2747 443.2126 81.6997 431.3196 81.6997"></polygon>
                        <path d="M563.088,85.7124 C564.192,85.7124 565.223,85.5684 566.183,85.2784 C567.141,84.9894 568.008,84.6084 568.783,84.1364 C569.558,83.6634 570.234,83.1184 570.813,82.5004 C571.39,81.8834 571.85,81.2584 572.192,80.6284 L572.192,72.5884 L567.029,72.5884 C563.483,72.5884 560.816,73.2064 559.029,74.4414 C557.242,75.6764 556.349,77.4234 556.349,79.6824 C556.349,80.5494 556.493,81.3514 556.783,82.0874 C557.071,82.8224 557.505,83.4604 558.083,83.9984 C558.661,84.5374 559.363,84.9574 560.192,85.2584 C561.02,85.5614 561.984,85.7124 563.088,85.7124 L563.088,85.7124 Z M573.611,92.6084 C573.348,92.1104 573.131,91.5194 572.961,90.8354 C572.789,90.1524 572.639,89.4174 572.507,88.6284 C571.876,89.2854 571.174,89.9034 570.399,90.4814 C569.623,91.0594 568.77,91.5644 567.837,91.9984 C566.904,92.4314 565.893,92.7734 564.803,93.0234 C563.712,93.2724 562.55,93.3974 561.315,93.3974 C559.187,93.3974 557.23,93.0754 555.442,92.4314 C553.655,91.7884 552.125,90.8944 550.852,89.7524 C549.576,88.6084 548.579,87.2634 547.857,85.7124 C547.134,84.1634 546.773,82.4804 546.773,80.6684 C546.773,78.3814 547.206,76.3594 548.073,74.5994 C548.941,72.8384 550.201,71.3664 551.857,70.1854 C553.512,69.0024 555.542,68.1034 557.945,67.4854 C560.349,66.8684 563.088,66.5594 566.162,66.5594 L572.192,66.5594 L572.192,63.7604 C572.192,61.5534 571.574,59.7874 570.34,58.4604 C569.105,57.1344 567.226,56.4704 564.704,56.4704 C563.574,56.4704 562.55,56.6214 561.63,56.9234 C560.71,57.2254 559.929,57.6324 559.285,58.1454 C558.641,58.6574 558.142,59.2684 557.787,59.9774 C557.434,60.6874 557.256,61.4494 557.256,62.2634 L547.679,62.2634 C547.679,60.5824 548.093,58.9594 548.921,57.3964 C549.748,55.8334 550.924,54.4414 552.447,53.2184 C553.971,51.9974 555.817,51.0184 557.984,50.2824 C560.152,49.5474 562.576,49.1794 565.256,49.1794 C567.646,49.1794 569.853,49.4884 571.876,50.1054 C573.9,50.7234 575.647,51.6424 577.118,52.8644 C578.59,54.0864 579.733,55.6094 580.547,57.4354 C581.36,59.2624 581.769,61.3964 581.769,63.8394 L581.769,82.7564 C581.769,86.5934 582.307,89.6534 583.385,91.9394 L583.385,92.6084 L573.611,92.6084 Z" id="Fill-23" fill="#003D8E"></path>
                        <path d="M609.4014,21.1357 C613.9204,21.1357 617.5354,24.7507 617.5354,29.2697 C617.5354,33.7887 613.9204,37.4037 609.4014,37.4037 C604.8824,37.4037 601.2674,33.7887 601.2674,29.2697 C601.2674,24.7507 604.8824,21.1357 609.4014,21.1357 L609.4014,21.1357 Z M592.1394,44.0917 L598.4654,44.0917 C602.0814,44.0917 609.6724,44.0917 614.9144,41.8317 L604.9724,77.1687 C604.7924,77.8917 604.6114,78.7047 604.6114,79.3377 C604.6114,80.5127 605.0634,81.1447 605.8764,81.1447 C607.3234,81.1447 609.5824,79.2477 612.1124,75.0897 L613.6484,75.9937 C610.4854,81.9587 605.4244,86.0257 598.5554,86.0257 C593.6754,86.0257 588.8854,83.9467 588.8854,77.5307 C588.8854,75.5417 589.7904,71.6557 591.1454,66.6847 L597.0194,45.8087 L591.4174,45.8087 L592.1394,44.0917 Z" id="Fill-25" fill="#FEDEC9"></path>
                        <path d="M635.2989,58.8891 L645.4949,58.8891 C647.2739,58.8891 648.8289,58.6541 650.1619,58.1831 C651.4959,57.7121 652.6079,57.0591 653.4969,56.2221 C654.3849,55.3861 655.0519,54.3921 655.4969,53.2411 C655.9419,52.0911 656.1629,50.8231 656.1629,49.4371 C656.1629,47.9721 655.9529,46.6461 655.5359,45.4561 C655.1169,44.2661 654.4779,43.2471 653.6139,42.3971 C652.7509,41.5471 651.6469,40.8931 650.2999,40.4361 C648.9529,39.9781 647.3389,39.7491 645.4559,39.7491 L635.2989,39.7491 L635.2989,58.8891 Z M646.3589,66.8501 L635.2989,66.8501 L635.2989,88.8531 L625.3749,88.8531 L625.3749,31.7481 L645.4559,31.7481 C648.7249,31.7481 651.6399,32.1211 654.2019,32.8661 C656.7649,33.6111 658.9289,34.7101 660.6939,36.1601 C662.4579,37.6121 663.7979,39.4101 664.7139,41.5541 C665.6279,43.6981 666.0859,46.1811 666.0859,49.0061 C666.0859,52.8241 665.1649,56.0191 663.3199,58.5951 C661.4779,61.1701 658.9089,63.1511 655.6139,64.5361 L668.4399,88.3431 L668.4399,88.8531 L657.8109,88.8531 L646.3589,66.8501 Z" id="Fill-27" fill="#F4A795"></path>
                        <mask id="mask-6" fill="white">
                            <use xlink:href="#path-5"></use>
                        </mask>
                        <g id="Clip-30"></g>
                        <polygon id="Fill-29" fill="#5FB6C6" mask="url(#mask-6)" points="137.787 88.09 188.15 88.09 188.15 81.694 137.787 81.694"></polygon>
                        <path d="M377.2501,54.978 C377.2501,65.181 385.4811,73.877 395.8001,73.877 C406.1191,73.877 414.3521,65.181 414.3521,54.978 C414.3521,44.659 406.1191,36.08 395.8001,36.08 C385.4811,36.08 377.2501,44.659 377.2501,54.978 M424.7861,54.978 C424.7861,71.326 412.0321,83.848 395.8001,83.848 C379.5681,83.848 366.8141,71.326 366.8141,54.978 C366.8141,38.63 379.5681,26.108 395.8001,26.108 C412.0321,26.108 424.7861,38.63 424.7861,54.978" id="Fill-31" fill="#F4A795" mask="url(#mask-6)"></path>
                        <polygon id="Fill-32" fill="#F4A795" mask="url(#mask-6)" points="361.622 104.482 427.228 104.482 427.228 96.151 361.622 96.151"></polygon>
                        <path d="M497.5069,51.4487 L492.3119,51.4487 L493.0539,49.6857 L499.1759,49.6857 C502.8869,49.6857 510.5859,49.6857 515.9659,47.3667 L512.2559,62.1167 L512.4419,62.1167 C516.1519,55.1597 523.3879,47.3667 531.9219,47.3667 C537.2089,47.3667 542.1249,50.2427 542.1249,56.2727 C542.1249,63.8787 533.9619,81.0407 533.9619,85.3997 C533.9619,87.1627 534.4269,87.7197 535.4469,87.7197 C537.8589,87.7197 541.2899,83.1737 542.3109,81.1327 L543.7949,81.9677 C540.7349,88.4607 535.0759,92.7287 527.6539,92.7287 C521.9029,92.7287 517.8209,89.7607 517.8209,83.1737 C517.8209,78.3497 525.9849,57.6637 525.9849,55.1597 C525.9849,53.6747 525.0569,52.9327 523.9429,52.9327 C520.2339,52.9327 511.3279,64.8057 508.4519,75.2887 L504.0929,91.4287 L486.5609,91.4287 L497.5069,51.4487 Z" id="Fill-33" fill="#F4A795" mask="url(#mask-6)"></path>
                    </g>
                </g>
            </g>
        </g>
    </g>
</svg>