<?xml version="1.0" encoding="UTF-8"?>
<svg width="281px" height="104px" viewBox="0 0 281 104" version="1.1" xmlns="http://www.w3.org/2000/svg" xmlns:xlink="http://www.w3.org/1999/xlink">
    <title>directions</title>
    <defs>
        <filter x="-8.8%" y="-33.9%" width="117.6%" height="167.7%" filterUnits="objectBoundingBox" id="filter-1">
            <feGaussianBlur stdDeviation="7" in="SourceGraphic"></feGaussianBlur>
        </filter>
    </defs>
    <g id="Page-1" stroke="none" stroke-width="1" fill="none" fill-rule="evenodd">
        <g id="Desktop" transform="translate(-69.000000, -2650.000000)">
            <g id="info-section" transform="translate(21.000000, 1871.000000)">
                <g id="directions" transform="translate(61.000000, 792.000000)">
                    <rect id="Rectangle-Copy" fill-opacity="0.4" fill="#003D8E" filter="url(#filter-1)" x="8" y="8" width="239" height="62" rx="31"></rect>
                    <g id="desktop_directions">
                        <rect id="Rectangle-Copy-2" fill="#003D8E" fill-rule="evenodd" x="0" y="0" width="239" height="62" rx="31"></rect>
                        <path d="M65.5566406,39.1953125 C66.2076823,39.1953125 66.7773438,39.0846354 67.265625,38.8632812 C67.7539062,38.6419271 68.1738281,38.3164062 68.5253906,37.8867188 L68.5253906,37.8867188 L68.6035156,39 L70.2636719,39 L70.2636719,24 L68.4570312,24 L68.4570312,29.4785156 C68.1119792,29.0748698 67.7034505,28.7672526 67.2314453,28.5556641 C66.7594401,28.3440755 66.2076823,28.2382812 65.5761719,28.2382812 C64.9316406,28.2382812 64.3489583,28.3717448 63.828125,28.6386719 C63.3072917,28.905599 62.8629557,29.2766927 62.4951172,29.7519531 C62.1272786,30.2272135 61.8440755,30.7952474 61.6455078,31.4560547 C61.4469401,32.116862 61.3476562,32.8411458 61.3476562,33.6289062 L61.3476562,33.6289062 L61.3476562,33.8339844 C61.3476562,34.5891927 61.4485677,35.2939453 61.6503906,35.9482422 C61.8522135,36.6025391 62.1354167,37.1705729 62.5,37.6523438 C62.8645833,38.1341146 63.3056641,38.5117188 63.8232422,38.7851562 C64.3408203,39.0585938 64.9186198,39.1953125 65.5566406,39.1953125 Z M66.0058594,37.6621094 C65.5045573,37.6621094 65.0748698,37.5595703 64.7167969,37.3544922 C64.358724,37.1494141 64.0641276,36.8710938 63.8330078,36.5195312 C63.601888,36.1679688 63.4309896,35.7610677 63.3203125,35.2988281 C63.2096354,34.8365885 63.1542969,34.3483073 63.1542969,33.8339844 L63.1542969,33.8339844 L63.1542969,33.6289062 C63.1542969,33.1145833 63.2096354,32.6246745 63.3203125,32.1591797 C63.4309896,31.6936849 63.601888,31.2835286 63.8330078,30.9287109 C64.0641276,30.5738932 64.3603516,30.2923177 64.7216797,30.0839844 C65.0830078,29.875651 65.5175781,29.7714844 66.0253906,29.7714844 C66.6178385,29.7714844 67.1126302,29.9098307 67.5097656,30.1865234 C67.906901,30.4632161 68.2226562,30.8164062 68.4570312,31.2460938 L68.4570312,31.2460938 L68.4570312,36.1484375 C68.3398438,36.3763021 68.203125,36.5830078 68.046875,36.7685547 C67.890625,36.9541016 67.7115885,37.1136068 67.5097656,37.2470703 C67.3079427,37.3805339 67.0833333,37.4830729 66.8359375,37.5546875 C66.5885417,37.6263021 66.311849,37.6621094 66.0058594,37.6621094 Z M78.4179688,26.6855469 C78.7760417,26.6855469 79.046224,26.5878906 79.2285156,26.3925781 C79.4108073,26.1972656 79.5019531,25.953125 79.5019531,25.6601562 C79.5019531,25.3606771 79.4108073,25.1083984 79.2285156,24.9033203 C79.046224,24.6982422 78.7760417,24.5957031 78.4179688,24.5957031 C78.0533854,24.5957031 77.7815755,24.6982422 77.6025391,24.9033203 C77.4235026,25.1083984 77.3339844,25.3606771 77.3339844,25.6601562 C77.3339844,25.953125 77.4235026,26.1972656 77.6025391,26.3925781 C77.7815755,26.5878906 78.0533854,26.6855469 78.4179688,26.6855469 Z M82.8222656,39 L82.8222656,37.4375 L79.375,37.4375 L79.375,28.4335938 L73.9746094,28.4335938 L73.9746094,30.0058594 L77.5683594,30.0058594 L77.5683594,37.4375 L73.9746094,37.4375 L73.9746094,39 L82.8222656,39 Z M89.0234375,39 L89.0234375,32.2226562 C89.2708333,31.5325521 89.6565755,30.9954427 90.1806641,30.6113281 C90.7047526,30.2272135 91.389974,30.0351562 92.2363281,30.0351562 C92.5813802,30.0351562 92.9117839,30.0530599 93.2275391,30.0888672 C93.5432943,30.1246745 93.8769531,30.1816406 94.2285156,30.2597656 L94.2285156,30.2597656 L94.4726562,28.4921875 C94.3815104,28.453125 94.2659505,28.4173177 94.1259766,28.3847656 C93.9860026,28.3522135 93.8330078,28.3245443 93.6669922,28.3017578 C93.5009766,28.2789714 93.3268229,28.2626953 93.1445312,28.2529297 C92.9622396,28.2431641 92.7864583,28.2382812 92.6171875,28.2382812 C91.8489583,28.2382812 91.163737,28.4059245 90.5615234,28.7412109 C89.9593099,29.0764974 89.4433594,29.5338542 89.0136719,30.1132812 L89.0136719,30.1132812 L88.9257812,28.4335938 L87.2070312,28.4335938 L87.2070312,39 L89.0234375,39 Z M102.363281,39.1953125 C102.877604,39.1953125 103.352865,39.1383464 103.789062,39.0244141 C104.22526,38.9104818 104.615885,38.7591146 104.960938,38.5703125 C105.30599,38.3815104 105.610352,38.1650391 105.874023,37.9208984 C106.137695,37.6767578 106.357422,37.421224 106.533203,37.1542969 L106.533203,37.1542969 L105.429688,36.2949219 C105.097656,36.7246094 104.68099,37.0696615 104.179688,37.3300781 C103.678385,37.5904948 103.105469,37.7207031 102.460938,37.7207031 C101.972656,37.7207031 101.526693,37.6295573 101.123047,37.4472656 C100.719401,37.264974 100.372721,37.0159505 100.083008,36.7001953 C99.7932943,36.3844401 99.5654297,36.014974 99.3994141,35.5917969 C99.2333984,35.1686198 99.140625,34.7161458 99.1210938,34.234375 L99.1210938,34.234375 L106.669922,34.234375 L106.669922,33.4238281 C106.669922,32.688151 106.577148,32.0045573 106.391602,31.3730469 C106.206055,30.7415365 105.924479,30.1930339 105.546875,29.7275391 C105.169271,29.2620443 104.695638,28.8974609 104.125977,28.6337891 C103.556315,28.3701172 102.890625,28.2382812 102.128906,28.2382812 C101.523438,28.2382812 100.932617,28.3619792 100.356445,28.609375 C99.7802734,28.8567708 99.2659505,29.2132161 98.8134766,29.6787109 C98.3610026,30.1442057 97.9980469,30.7138672 97.7246094,31.3876953 C97.4511719,32.0615234 97.3144531,32.8248698 97.3144531,33.6777344 L97.3144531,33.6777344 L97.3144531,34.0878906 C97.3144531,34.8235677 97.438151,35.5039062 97.6855469,36.1289062 C97.9329427,36.7539062 98.2779948,37.2942708 98.7207031,37.75 C99.1634115,38.2057292 99.695638,38.5605469 100.317383,38.8144531 C100.939128,39.0683594 101.621094,39.1953125 102.363281,39.1953125 Z M104.863281,32.75 L99.1796875,32.75 C99.2513021,32.2617188 99.3766276,31.8304036 99.5556641,31.4560547 C99.7347005,31.0817057 99.9544271,30.7659505 100.214844,30.5087891 C100.47526,30.2516276 100.768229,30.0563151 101.09375,29.9228516 C101.419271,29.789388 101.764323,29.7226562 102.128906,29.7226562 C102.591146,29.7226562 102.989909,29.8072917 103.325195,29.9765625 C103.660482,30.1458333 103.938802,30.3671875 104.160156,30.640625 C104.38151,30.9140625 104.549154,31.2233073 104.663086,31.5683594 C104.777018,31.9134115 104.84375,32.2617188 104.863281,32.6132812 L104.863281,32.6132812 L104.863281,32.75 Z M114.199219,39.1953125 C114.759115,39.1953125 115.296224,39.0992839 115.810547,38.9072266 C116.32487,38.7151693 116.780599,38.4580078 117.177734,38.1357422 C117.57487,37.8134766 117.892253,37.4391276 118.129883,37.0126953 C118.367513,36.586263 118.489583,36.1386719 118.496094,35.6699219 L118.496094,35.6699219 L116.787109,35.6699219 C116.780599,35.9628906 116.704102,36.2347005 116.557617,36.4853516 C116.411133,36.7360026 116.217448,36.9541016 115.976562,37.1396484 C115.735677,37.3251953 115.460612,37.4700521 115.151367,37.5742188 C114.842122,37.6783854 114.52474,37.7304688 114.199219,37.7304688 C113.632812,37.7304688 113.15918,37.6181641 112.77832,37.3935547 C112.397461,37.1689453 112.091471,36.8759766 111.860352,36.5146484 C111.629232,36.1533203 111.463216,35.7464193 111.362305,35.2939453 C111.261393,34.8414714 111.210938,34.3841146 111.210938,33.921875 L111.210938,33.921875 L111.210938,33.5117188 C111.210938,33.0559896 111.261393,32.6035156 111.362305,32.1542969 C111.463216,31.7050781 111.630859,31.2998047 111.865234,30.9384766 C112.099609,30.5771484 112.407227,30.2841797 112.788086,30.0595703 C113.168945,29.8349609 113.639323,29.7226562 114.199219,29.7226562 C114.563802,29.7226562 114.903971,29.7845052 115.219727,29.9082031 C115.535482,30.031901 115.807292,30.2011719 116.035156,30.4160156 C116.263021,30.6308594 116.443685,30.8798828 116.577148,31.1630859 C116.710612,31.4462891 116.780599,31.7473958 116.787109,32.0664062 L116.787109,32.0664062 L118.496094,32.0664062 C118.496094,31.5325521 118.388672,31.03125 118.173828,30.5625 C117.958984,30.09375 117.661133,29.6884766 117.280273,29.3466797 C116.899414,29.0048828 116.44694,28.7347005 115.922852,28.5361328 C115.398763,28.3375651 114.824219,28.2382812 114.199219,28.2382812 C113.398438,28.2382812 112.698568,28.3815104 112.099609,28.6679688 C111.500651,28.9544271 111.000977,29.3401693 110.600586,29.8251953 C110.200195,30.3102214 109.899089,30.8717448 109.697266,31.5097656 C109.495443,32.1477865 109.394531,32.8151042 109.394531,33.5117188 L109.394531,33.5117188 L109.394531,33.921875 C109.394531,34.625 109.495443,35.2939453 109.697266,35.9287109 C109.899089,36.5634766 110.200195,37.1233724 110.600586,37.6083984 C111.000977,38.0934245 111.500651,38.4791667 112.099609,38.765625 C112.698568,39.0520833 113.398438,39.1953125 114.199219,39.1953125 Z M127.5,39.1953125 C127.779948,39.1953125 128.061523,39.1822917 128.344727,39.15625 C128.62793,39.1302083 128.896484,39.0927734 129.150391,39.0439453 C129.404297,38.9951172 129.638672,38.9365234 129.853516,38.8681641 C130.068359,38.7998047 130.250651,38.7200521 130.400391,38.6289062 L130.400391,38.6289062 L130.146484,37.3496094 C130.035807,37.375651 129.894206,37.4065755 129.72168,37.4423828 C129.549154,37.4781901 129.363607,37.5123698 129.165039,37.5449219 C128.966471,37.577474 128.763021,37.6051432 128.554688,37.6279297 C128.346354,37.6507161 128.144531,37.6621094 127.949219,37.6621094 C127.682292,37.6621094 127.430013,37.6295573 127.192383,37.5644531 C126.954753,37.499349 126.744792,37.3870443 126.5625,37.2275391 C126.380208,37.0680339 126.236979,36.8548177 126.132812,36.5878906 C126.028646,36.3209635 125.976562,35.9824219 125.976562,35.5722656 L125.976562,35.5722656 L125.976562,29.8300781 L130,29.8300781 L130,28.4335938 L125.976562,28.4335938 L125.976562,25.875 L124.160156,25.875 L124.160156,28.4335938 L121.386719,28.4335938 L121.386719,29.8300781 L124.160156,29.8300781 L124.160156,35.5722656 C124.160156,36.2233073 124.246419,36.7783203 124.418945,37.2373047 C124.591471,37.6962891 124.827474,38.070638 125.126953,38.3603516 C125.426432,38.6500651 125.779622,38.8616536 126.186523,38.9951172 C126.593424,39.1285807 127.03125,39.1953125 127.5,39.1953125 Z M138.427734,26.6855469 C138.785807,26.6855469 139.05599,26.5878906 139.238281,26.3925781 C139.420573,26.1972656 139.511719,25.953125 139.511719,25.6601562 C139.511719,25.3606771 139.420573,25.1083984 139.238281,24.9033203 C139.05599,24.6982422 138.785807,24.5957031 138.427734,24.5957031 C138.063151,24.5957031 137.791341,24.6982422 137.612305,24.9033203 C137.433268,25.1083984 137.34375,25.3606771 137.34375,25.6601562 C137.34375,25.953125 137.433268,26.1972656 137.612305,26.3925781 C137.791341,26.5878906 138.063151,26.6855469 138.427734,26.6855469 Z M142.832031,39 L142.832031,37.4375 L139.384766,37.4375 L139.384766,28.4335938 L133.984375,28.4335938 L133.984375,30.0058594 L137.578125,30.0058594 L137.578125,37.4375 L133.984375,37.4375 L133.984375,39 L142.832031,39 Z M150.009766,39.1953125 C150.751953,39.1953125 151.419271,39.0585938 152.011719,38.7851562 C152.604167,38.5117188 153.107096,38.1341146 153.520508,37.6523438 C153.933919,37.1705729 154.251302,36.6041667 154.472656,35.953125 C154.69401,35.3020833 154.804688,34.5957031 154.804688,33.8339844 L154.804688,33.8339844 L154.804688,33.6191406 C154.804688,32.8574219 154.69401,32.1494141 154.472656,31.4951172 C154.251302,30.8408203 153.933919,30.2727865 153.520508,29.7910156 C153.107096,29.3092448 152.602539,28.930013 152.006836,28.6533203 C151.411133,28.3766276 150.738932,28.2382812 149.990234,28.2382812 C149.248047,28.2382812 148.580729,28.3766276 147.988281,28.6533203 C147.395833,28.930013 146.892904,29.3092448 146.479492,29.7910156 C146.066081,30.2727865 145.748698,30.8408203 145.527344,31.4951172 C145.30599,32.1494141 145.195312,32.8574219 145.195312,33.6191406 L145.195312,33.6191406 L145.195312,33.8339844 C145.195312,34.5957031 145.30599,35.3020833 145.527344,35.953125 C145.748698,36.6041667 146.066081,37.1705729 146.479492,37.6523438 C146.892904,38.1341146 147.397461,38.5117188 147.993164,38.7851562 C148.588867,39.0585938 149.261068,39.1953125 150.009766,39.1953125 Z M150.009766,37.7304688 C149.508464,37.7304688 149.06901,37.6263021 148.691406,37.4179688 C148.313802,37.2096354 147.999674,36.9264323 147.749023,36.5683594 C147.498372,36.2102865 147.311198,35.7952474 147.1875,35.3232422 C147.063802,34.851237 147.001953,34.3548177 147.001953,33.8339844 L147.001953,33.8339844 L147.001953,33.6191406 C147.001953,33.1048177 147.063802,32.6116536 147.1875,32.1396484 C147.311198,31.6676432 147.498372,31.2526042 147.749023,30.8945312 C147.999674,30.5364583 148.310547,30.2516276 148.681641,30.0400391 C149.052734,29.8284505 149.488932,29.7226562 149.990234,29.7226562 C150.491536,29.7226562 150.929362,29.8284505 151.303711,30.0400391 C151.67806,30.2516276 151.99056,30.5364583 152.241211,30.8945312 C152.491862,31.2526042 152.680664,31.6676432 152.807617,32.1396484 C152.93457,32.6116536 152.998047,33.1048177 152.998047,33.6191406 L152.998047,33.6191406 L152.998047,33.8339844 C152.998047,34.3548177 152.936198,34.851237 152.8125,35.3232422 C152.688802,35.7952474 152.501628,36.2102865 152.250977,36.5683594 C152.000326,36.9264323 151.687826,37.2096354 151.313477,37.4179688 C150.939128,37.6263021 150.504557,37.7304688 150.009766,37.7304688 Z M159.511719,39 L159.511719,31.421875 C159.785156,30.9270833 160.151367,30.5283203 160.610352,30.2255859 C161.069336,29.9228516 161.601562,29.7714844 162.207031,29.7714844 C162.591146,29.7714844 162.931315,29.8170573 163.227539,29.9082031 C163.523763,29.999349 163.774414,30.1458333 163.979492,30.3476562 C164.18457,30.5494792 164.339193,30.813151 164.443359,31.1386719 C164.547526,31.4641927 164.599609,31.8613281 164.599609,32.3300781 L164.599609,32.3300781 L164.599609,39 L166.40625,39 L166.40625,32.2910156 C166.40625,31.5878906 166.319987,30.9807943 166.147461,30.4697266 C165.974935,29.9586589 165.729167,29.5371094 165.410156,29.2050781 C165.091146,28.8730469 164.705404,28.6289062 164.25293,28.4726562 C163.800456,28.3164062 163.297526,28.2382812 162.744141,28.2382812 C162.054036,28.2447917 161.429036,28.4026693 160.869141,28.7119141 C160.309245,29.0211589 159.83724,29.4492188 159.453125,29.9960938 L159.453125,29.9960938 L159.326172,28.4335938 L157.705078,28.4335938 L157.705078,39 L159.511719,39 Z M174.248047,39.1953125 C174.873047,39.1953125 175.449219,39.1204427 175.976562,38.9707031 C176.503906,38.8209635 176.95638,38.609375 177.333984,38.3359375 C177.711589,38.0625 178.006185,37.733724 178.217773,37.3496094 C178.429362,36.9654948 178.535156,36.5390625 178.535156,36.0703125 C178.535156,35.6341146 178.442383,35.25 178.256836,34.9179688 C178.071289,34.5859375 177.802734,34.2945964 177.451172,34.0439453 C177.099609,33.7932943 176.666667,33.5784505 176.152344,33.3994141 C175.638021,33.2203776 175.055339,33.0625 174.404297,32.9257812 C173.909505,32.828125 173.500977,32.7272135 173.178711,32.6230469 C172.856445,32.5188802 172.599284,32.4016927 172.407227,32.2714844 C172.215169,32.141276 172.080078,31.9947917 172.001953,31.8320312 C171.923828,31.6692708 171.884766,31.483724 171.884766,31.2753906 C171.884766,31.0735677 171.933594,30.8782552 172.03125,30.6894531 C172.128906,30.500651 172.273763,30.3346354 172.46582,30.1914062 C172.657878,30.0481771 172.898763,29.9342448 173.188477,29.8496094 C173.47819,29.764974 173.815104,29.7226562 174.199219,29.7226562 C174.570312,29.7226562 174.903971,29.7747396 175.200195,29.8789062 C175.496419,29.9830729 175.748698,30.1197917 175.957031,30.2890625 C176.165365,30.4583333 176.328125,30.6520182 176.445312,30.8701172 C176.5625,31.0882161 176.621094,31.3111979 176.621094,31.5390625 L176.621094,31.5390625 L178.427734,31.5390625 C178.427734,31.0768229 178.328451,30.6455078 178.129883,30.2451172 C177.931315,29.8447266 177.64974,29.4947917 177.285156,29.1953125 C176.920573,28.8958333 176.477865,28.6614583 175.957031,28.4921875 C175.436198,28.3229167 174.85026,28.2382812 174.199219,28.2382812 C173.59375,28.2382812 173.038737,28.3196615 172.53418,28.4824219 C172.029622,28.6451823 171.595052,28.8665365 171.230469,29.1464844 C170.865885,29.4264323 170.582682,29.7535807 170.380859,30.1279297 C170.179036,30.5022786 170.078125,30.9042969 170.078125,31.3339844 C170.078125,31.7701823 170.175781,32.1526693 170.371094,32.4814453 C170.566406,32.8102214 170.841471,33.0966797 171.196289,33.3408203 C171.551107,33.5849609 171.977539,33.7949219 172.475586,33.9707031 C172.973633,34.1464844 173.525391,34.296224 174.130859,34.4199219 C174.625651,34.5175781 175.039062,34.6266276 175.371094,34.7470703 C175.703125,34.867513 175.970052,34.999349 176.171875,35.1425781 C176.373698,35.2858073 176.516927,35.4436849 176.601562,35.6162109 C176.686198,35.788737 176.728516,35.9824219 176.728516,36.1972656 C176.722005,36.6595052 176.497396,37.030599 176.054688,37.3105469 C175.611979,37.5904948 175.009766,37.7304688 174.248047,37.7304688 C173.942057,37.7304688 173.632812,37.6979167 173.320312,37.6328125 C173.007812,37.5677083 172.722982,37.4570312 172.46582,37.3007812 C172.208659,37.1445312 171.993815,36.9394531 171.821289,36.6855469 C171.648763,36.4316406 171.549479,36.1191406 171.523438,35.7480469 L171.523438,35.7480469 L169.716797,35.7480469 C169.716797,36.1972656 169.819336,36.6302083 170.024414,37.046875 C170.229492,37.4635417 170.525716,37.8297526 170.913086,38.1455078 C171.300456,38.461263 171.774089,38.7151693 172.333984,38.9072266 C172.89388,39.0992839 173.531901,39.1953125 174.248047,39.1953125 Z" id="directions" fill="#FFFFFF" fill-rule="nonzero"></path>
                    </g>
                </g>
            </g>
        </g>
    </g>
</svg>