<?xml version="1.0" encoding="UTF-8"?>
<svg width="253px" height="96px" viewBox="0 0 253 96" version="1.1" xmlns="http://www.w3.org/2000/svg" xmlns:xlink="http://www.w3.org/1999/xlink">
    <title>seemore</title>
    <defs>
        <filter x="-9.6%" y="-33.9%" width="119.2%" height="167.7%" filterUnits="objectBoundingBox" id="filter-1">
            <feGaussianBlur stdDeviation="7" in="SourceGraphic"></feGaussianBlur>
        </filter>
    </defs>
    <g id="Page-1" stroke="none" stroke-width="1" fill="none" fill-rule="evenodd">
        <g id="Desktop" transform="translate(-668.000000, -1259.000000)">
            <g id="about-section" transform="translate(41.000000, 941.000000)">
                <g id="see-more" transform="translate(637.000000, 328.853000)">
                    <g id="seemore">
                        <g id="Group" stroke-width="1" fill-rule="evenodd" transform="translate(7.000000, 6.000000)" fill="#008297" fill-opacity="0.4">
                            <rect id="Rectangle" filter="url(#filter-1)" x="0" y="0" width="219" height="62" rx="19"></rect>
                        </g>
                        <g id="desktop_see-more">
                            <rect id="Rectangle" fill="#008297" fill-rule="evenodd" x="0" y="0" width="219" height="62" rx="19"></rect>
                            <path d="M55.7021484,41.2539062 C56.5146484,41.2539062 57.2636719,41.1565755 57.9492188,40.9619141 C58.6347656,40.7672526 59.2229818,40.4921875 59.7138672,40.1367188 C60.2047526,39.78125 60.5877279,39.3538411 60.862793,38.8544922 C61.1378581,38.3551432 61.2753906,37.8007812 61.2753906,37.1914062 C61.2753906,36.624349 61.1547852,36.125 60.9135742,35.6933594 C60.6723633,35.2617188 60.3232422,34.8829753 59.8662109,34.5571289 C59.4091797,34.2312826 58.8463542,33.9519857 58.1777344,33.7192383 C57.5091146,33.4864909 56.7516276,33.28125 55.9052734,33.1035156 C55.2620443,32.9765625 54.730957,32.8453776 54.3120117,32.7099609 C53.8930664,32.5745443 53.5587565,32.4222005 53.309082,32.2529297 C53.0594076,32.0836589 52.8837891,31.8932292 52.7822266,31.6816406 C52.6806641,31.4700521 52.6298828,31.2288411 52.6298828,30.9580078 C52.6298828,30.695638 52.6933594,30.4417318 52.8203125,30.1962891 C52.9472656,29.9508464 53.1355794,29.735026 53.3852539,29.5488281 C53.6349284,29.3626302 53.9480794,29.2145182 54.324707,29.1044922 C54.7013346,28.9944661 55.1393229,28.9394531 55.6386719,28.9394531 C56.1210938,28.9394531 56.5548503,29.0071615 56.9399414,29.1425781 C57.3250326,29.2779948 57.6529948,29.4557292 57.9238281,29.6757812 C58.1946615,29.8958333 58.40625,30.1476237 58.5585938,30.4311523 C58.7109375,30.714681 58.7871094,31.0045573 58.7871094,31.3007812 L58.7871094,31.3007812 L61.1357422,31.3007812 C61.1357422,30.6998698 61.0066732,30.1391602 60.7485352,29.6186523 C60.4903971,29.0981445 60.124349,28.6432292 59.6503906,28.2539062 C59.1764323,27.8645833 58.6009115,27.5598958 57.9238281,27.3398438 C57.2467448,27.1197917 56.485026,27.0097656 55.6386719,27.0097656 C54.8515625,27.0097656 54.1300456,27.1155599 53.4741211,27.3271484 C52.8181966,27.538737 52.2532552,27.8264974 51.7792969,28.1904297 C51.3053385,28.554362 50.9371745,28.9796549 50.6748047,29.4663086 C50.4124349,29.9529622 50.28125,30.4755859 50.28125,31.0341797 C50.28125,31.601237 50.4082031,32.0984701 50.6621094,32.5258789 C50.9160156,32.9532878 51.2736003,33.3256836 51.7348633,33.6430664 C52.1961263,33.9604492 52.7504883,34.2333984 53.3979492,34.4619141 C54.0454102,34.6904297 54.7626953,34.8850911 55.5498047,35.0458984 C56.1930339,35.1728516 56.7304688,35.3146159 57.1621094,35.4711914 C57.59375,35.6277669 57.9407552,35.7991536 58.203125,35.9853516 C58.4654948,36.1715495 58.6516927,36.3767904 58.7617188,36.6010742 C58.8717448,36.8253581 58.9267578,37.0771484 58.9267578,37.3564453 C58.9182943,37.9573568 58.6263021,38.4397786 58.0507812,38.8037109 C57.4752604,39.1676432 56.6923828,39.3496094 55.7021484,39.3496094 C55.304362,39.3496094 54.9023438,39.3072917 54.4960938,39.2226562 C54.0898438,39.1380208 53.7195638,38.9941406 53.3852539,38.7910156 C53.050944,38.5878906 52.7716471,38.3212891 52.5473633,37.9912109 C52.3230794,37.6611328 52.1940104,37.2548828 52.1601562,36.7724609 L52.1601562,36.7724609 L49.8115234,36.7724609 C49.8115234,37.3564453 49.9448242,37.9192708 50.2114258,38.4609375 C50.4780273,39.0026042 50.8631185,39.4786784 51.3666992,39.8891602 C51.8702799,40.2996419 52.4860026,40.6297201 53.2138672,40.8793945 C53.9417318,41.129069 54.7711589,41.2539062 55.7021484,41.2539062 Z M71.4697266,41.2539062 C72.1383464,41.2539062 72.7561849,41.1798503 73.3232422,41.0317383 C73.8902995,40.8836263 74.398112,40.686849 74.8466797,40.4414062 C75.2952474,40.1959635 75.690918,39.9145508 76.0336914,39.597168 C76.3764648,39.2797852 76.6621094,38.9475911 76.890625,38.6005859 L76.890625,38.6005859 L75.4560547,37.4833984 C75.0244141,38.0419922 74.4827474,38.4905599 73.8310547,38.8291016 C73.179362,39.1676432 72.4345703,39.3369141 71.5966797,39.3369141 C70.9619141,39.3369141 70.3821615,39.2184245 69.8574219,38.9814453 C69.3326823,38.7444661 68.8819987,38.4207357 68.5053711,38.0102539 C68.1287435,37.5997721 67.8325195,37.1194661 67.6166992,36.5693359 C67.4008789,36.0192057 67.2802734,35.4309896 67.2548828,34.8046875 L67.2548828,34.8046875 L77.0683594,34.8046875 L77.0683594,33.7509766 C77.0683594,32.7945964 76.9477539,31.9059245 76.706543,31.0849609 C76.465332,30.2639974 76.0992839,29.550944 75.6083984,28.9458008 C75.117513,28.3406576 74.5017904,27.8666992 73.7612305,27.5239258 C73.0206706,27.1811523 72.1552734,27.0097656 71.1650391,27.0097656 C70.3779297,27.0097656 69.6098633,27.1705729 68.8608398,27.4921875 C68.1118164,27.8138021 67.4431966,28.277181 66.8549805,28.8823242 C66.2667643,29.4874674 65.7949219,30.2280273 65.4394531,31.1040039 C65.0839844,31.9799805 64.90625,32.9723307 64.90625,34.0810547 L64.90625,34.0810547 L64.90625,34.6142578 C64.90625,35.570638 65.0670573,36.4550781 65.3886719,37.2675781 C65.7102865,38.0800781 66.1588542,38.7825521 66.734375,39.375 C67.3098958,39.9674479 68.0017904,40.4287109 68.8100586,40.7587891 C69.6183268,41.0888672 70.5048828,41.2539062 71.4697266,41.2539062 Z M74.7197266,32.875 L67.3310547,32.875 C67.4241536,32.2402344 67.5870768,31.6795247 67.8198242,31.1928711 C68.0525716,30.7062174 68.3382161,30.2957357 68.6767578,29.9614258 C69.0152995,29.6271159 69.3961589,29.3732096 69.8193359,29.199707 C70.242513,29.0262044 70.6910807,28.9394531 71.1650391,28.9394531 C71.7659505,28.9394531 72.2843424,29.0494792 72.7202148,29.2695312 C73.1560872,29.4895833 73.5179036,29.7773438 73.8056641,30.1328125 C74.0934245,30.4882812 74.3113607,30.8902995 74.4594727,31.3388672 C74.6075846,31.7874349 74.6943359,32.2402344 74.7197266,32.6972656 L74.7197266,32.6972656 L74.7197266,32.875 Z M87.0722656,41.2539062 C87.7408854,41.2539062 88.358724,41.1798503 88.9257812,41.0317383 C89.4928385,40.8836263 90.000651,40.686849 90.4492188,40.4414062 C90.8977865,40.1959635 91.293457,39.9145508 91.6362305,39.597168 C91.9790039,39.2797852 92.2646484,38.9475911 92.4931641,38.6005859 L92.4931641,38.6005859 L91.0585938,37.4833984 C90.6269531,38.0419922 90.0852865,38.4905599 89.4335938,38.8291016 C88.781901,39.1676432 88.0371094,39.3369141 87.1992188,39.3369141 C86.5644531,39.3369141 85.9847005,39.2184245 85.4599609,38.9814453 C84.9352214,38.7444661 84.4845378,38.4207357 84.1079102,38.0102539 C83.7312826,37.5997721 83.4350586,37.1194661 83.2192383,36.5693359 C83.003418,36.0192057 82.8828125,35.4309896 82.8574219,34.8046875 L82.8574219,34.8046875 L92.6708984,34.8046875 L92.6708984,33.7509766 C92.6708984,32.7945964 92.550293,31.9059245 92.309082,31.0849609 C92.0678711,30.2639974 91.7018229,29.550944 91.2109375,28.9458008 C90.7200521,28.3406576 90.1043294,27.8666992 89.3637695,27.5239258 C88.6232096,27.1811523 87.7578125,27.0097656 86.7675781,27.0097656 C85.9804688,27.0097656 85.2124023,27.1705729 84.4633789,27.4921875 C83.7143555,27.8138021 83.0457357,28.277181 82.4575195,28.8823242 C81.8693034,29.4874674 81.3974609,30.2280273 81.0419922,31.1040039 C80.6865234,31.9799805 80.5087891,32.9723307 80.5087891,34.0810547 L80.5087891,34.0810547 L80.5087891,34.6142578 C80.5087891,35.570638 80.6695964,36.4550781 80.9912109,37.2675781 C81.3128255,38.0800781 81.7613932,38.7825521 82.3369141,39.375 C82.9124349,39.9674479 83.6043294,40.4287109 84.4125977,40.7587891 C85.2208659,41.0888672 86.1074219,41.2539062 87.0722656,41.2539062 Z M90.3222656,32.875 L82.9335938,32.875 C83.0266927,32.2402344 83.1896159,31.6795247 83.4223633,31.1928711 C83.6551107,30.7062174 83.9407552,30.2957357 84.2792969,29.9614258 C84.6178385,29.6271159 84.9986979,29.3732096 85.421875,29.199707 C85.8450521,29.0262044 86.2936198,28.9394531 86.7675781,28.9394531 C87.3684896,28.9394531 87.8868815,29.0494792 88.3227539,29.2695312 C88.7586263,29.4895833 89.1204427,29.7773438 89.4082031,30.1328125 C89.6959635,30.4882812 89.9138997,30.8902995 90.0620117,31.3388672 C90.2101237,31.7874349 90.296875,32.2402344 90.3222656,32.6972656 L90.3222656,32.6972656 L90.3222656,32.875 Z M113.415039,41 L113.415039,30.0693359 C113.541992,29.7477214 113.740885,29.4895833 114.011719,29.2949219 C114.282552,29.1002604 114.663411,29.0029297 115.154297,29.0029297 C115.6875,28.9944661 116.076823,29.1383464 116.322266,29.4345703 C116.567708,29.7307943 116.69043,30.1539714 116.69043,30.7041016 L116.69043,30.7041016 L116.69043,41 L118.924805,41 L118.924805,30.4248047 C118.950195,30.2386068 119.000977,30.0587565 119.077148,29.8852539 C119.15332,29.7117513 119.259115,29.5594076 119.394531,29.4282227 C119.529948,29.2970378 119.699219,29.1933594 119.902344,29.1171875 C120.105469,29.0410156 120.34668,29.0029297 120.625977,29.0029297 C121.683919,28.9944661 122.212891,29.5657552 122.212891,30.7167969 L122.212891,30.7167969 L122.212891,41 L124.447266,41 L124.447266,30.7421875 C124.447266,29.4895833 124.176432,28.554362 123.634766,27.9365234 C123.093099,27.3186849 122.318685,27.0097656 121.311523,27.0097656 C120.676758,27.0182292 120.137207,27.1557617 119.692871,27.4223633 C119.248535,27.6889648 118.890951,28.0423177 118.620117,28.4824219 C118.19694,27.500651 117.354818,27.0097656 116.09375,27.0097656 C115.450521,27.0182292 114.902507,27.1578776 114.449707,27.4287109 C113.996908,27.6995443 113.630859,28.0761719 113.351562,28.5585938 L113.351562,28.5585938 L113.288086,27.2636719 L111.180664,27.2636719 L111.180664,41 L113.415039,41 Z M133.410156,41.2539062 C134.375,41.2539062 135.242513,41.0761719 136.012695,40.7207031 C136.782878,40.3652344 137.436686,39.874349 137.974121,39.2480469 C138.511556,38.6217448 138.924154,37.8854167 139.211914,37.0390625 C139.499674,36.1927083 139.643555,35.2744141 139.643555,34.2841797 L139.643555,34.2841797 L139.643555,34.0048828 C139.643555,33.0146484 139.499674,32.0942383 139.211914,31.2436523 C138.924154,30.3930664 138.511556,29.6546224 137.974121,29.0283203 C137.436686,28.4020182 136.780762,27.9090169 136.006348,27.5493164 C135.231934,27.1896159 134.358073,27.0097656 133.384766,27.0097656 C132.419922,27.0097656 131.552409,27.1896159 130.782227,27.5493164 C130.012044,27.9090169 129.358236,28.4020182 128.820801,29.0283203 C128.283366,29.6546224 127.870768,30.3930664 127.583008,31.2436523 C127.295247,32.0942383 127.151367,33.0146484 127.151367,34.0048828 L127.151367,34.0048828 L127.151367,34.2841797 C127.151367,35.2744141 127.295247,36.1927083 127.583008,37.0390625 C127.870768,37.8854167 128.283366,38.6217448 128.820801,39.2480469 C129.358236,39.874349 130.01416,40.3652344 130.788574,40.7207031 C131.562988,41.0761719 132.436849,41.2539062 133.410156,41.2539062 Z M133.410156,39.3496094 C132.758464,39.3496094 132.187174,39.2141927 131.696289,38.9433594 C131.205404,38.672526 130.797038,38.304362 130.471191,37.8388672 C130.145345,37.3733724 129.902018,36.8338216 129.741211,36.2202148 C129.580404,35.6066081 129.5,34.961263 129.5,34.2841797 L129.5,34.2841797 L129.5,34.0048828 C129.5,33.336263 129.580404,32.6951497 129.741211,32.081543 C129.902018,31.4679362 130.145345,30.9283854 130.471191,30.4628906 C130.797038,29.9973958 131.201172,29.6271159 131.683594,29.3520508 C132.166016,29.0769857 132.733073,28.9394531 133.384766,28.9394531 C134.036458,28.9394531 134.605632,29.0769857 135.092285,29.3520508 C135.578939,29.6271159 135.985189,29.9973958 136.311035,30.4628906 C136.636882,30.9283854 136.882324,31.4679362 137.047363,32.081543 C137.212402,32.6951497 137.294922,33.336263 137.294922,34.0048828 L137.294922,34.0048828 L137.294922,34.2841797 C137.294922,34.961263 137.214518,35.6066081 137.053711,36.2202148 C136.892904,36.8338216 136.649577,37.3733724 136.32373,37.8388672 C135.997884,38.304362 135.591634,38.672526 135.10498,38.9433594 C134.618327,39.2141927 134.053385,39.3496094 133.410156,39.3496094 Z M147.743164,41 L147.743164,32.1894531 C148.064779,31.2923177 148.566243,30.5940755 149.247559,30.0947266 C149.928874,29.5953776 150.819661,29.3457031 151.919922,29.3457031 C152.36849,29.3457031 152.798014,29.3689779 153.208496,29.4155273 C153.618978,29.4620768 154.052734,29.5361328 154.509766,29.6376953 L154.509766,29.6376953 L154.827148,27.3398438 C154.708659,27.2890625 154.558431,27.242513 154.376465,27.2001953 C154.194499,27.1578776 153.995605,27.1219076 153.779785,27.0922852 C153.563965,27.0626628 153.337565,27.0415039 153.100586,27.0288086 C152.863607,27.0161133 152.635091,27.0097656 152.415039,27.0097656 C151.416341,27.0097656 150.525553,27.2277018 149.742676,27.6635742 C148.959798,28.0994466 148.289062,28.6940104 147.730469,29.4472656 L147.730469,29.4472656 L147.616211,27.2636719 L145.381836,27.2636719 L145.381836,41 L147.743164,41 Z M165.084961,41.2539062 C165.753581,41.2539062 166.371419,41.1798503 166.938477,41.0317383 C167.505534,40.8836263 168.013346,40.686849 168.461914,40.4414062 C168.910482,40.1959635 169.306152,39.9145508 169.648926,39.597168 C169.991699,39.2797852 170.277344,38.9475911 170.505859,38.6005859 L170.505859,38.6005859 L169.071289,37.4833984 C168.639648,38.0419922 168.097982,38.4905599 167.446289,38.8291016 C166.794596,39.1676432 166.049805,39.3369141 165.211914,39.3369141 C164.577148,39.3369141 163.997396,39.2184245 163.472656,38.9814453 C162.947917,38.7444661 162.497233,38.4207357 162.120605,38.0102539 C161.743978,37.5997721 161.447754,37.1194661 161.231934,36.5693359 C161.016113,36.0192057 160.895508,35.4309896 160.870117,34.8046875 L160.870117,34.8046875 L170.683594,34.8046875 L170.683594,33.7509766 C170.683594,32.7945964 170.562988,31.9059245 170.321777,31.0849609 C170.080566,30.2639974 169.714518,29.550944 169.223633,28.9458008 C168.732747,28.3406576 168.117025,27.8666992 167.376465,27.5239258 C166.635905,27.1811523 165.770508,27.0097656 164.780273,27.0097656 C163.993164,27.0097656 163.225098,27.1705729 162.476074,27.4921875 C161.727051,27.8138021 161.058431,28.277181 160.470215,28.8823242 C159.881999,29.4874674 159.410156,30.2280273 159.054688,31.1040039 C158.699219,31.9799805 158.521484,32.9723307 158.521484,34.0810547 L158.521484,34.0810547 L158.521484,34.6142578 C158.521484,35.570638 158.682292,36.4550781 159.003906,37.2675781 C159.325521,38.0800781 159.774089,38.7825521 160.349609,39.375 C160.92513,39.9674479 161.617025,40.4287109 162.425293,40.7587891 C163.233561,41.0888672 164.120117,41.2539062 165.084961,41.2539062 Z M168.334961,32.875 L160.946289,32.875 C161.039388,32.2402344 161.202311,31.6795247 161.435059,31.1928711 C161.667806,30.7062174 161.953451,30.2957357 162.291992,29.9614258 C162.630534,29.6271159 163.011393,29.3732096 163.43457,29.199707 C163.857747,29.0262044 164.306315,28.9394531 164.780273,28.9394531 C165.381185,28.9394531 165.899577,29.0494792 166.335449,29.2695312 C166.771322,29.4895833 167.133138,29.7773438 167.420898,30.1328125 C167.708659,30.4882812 167.926595,30.8902995 168.074707,31.3388672 C168.222819,31.7874349 168.30957,32.2402344 168.334961,32.6972656 L168.334961,32.6972656 L168.334961,32.875 Z" id="seemore" fill="#FFFFFF" fill-rule="nonzero"></path>
                        </g>
                    </g>
                </g>
            </g>
        </g>
    </g>
</svg>