<?xml version="1.0" encoding="UTF-8"?>
<svg width="281px" height="104px" viewBox="0 0 281 104" version="1.1" xmlns="http://www.w3.org/2000/svg" xmlns:xlink="http://www.w3.org/1999/xlink">
    <title>add to calendar</title>
    <defs>
        <filter x="-8.8%" y="-33.9%" width="117.6%" height="167.7%" filterUnits="objectBoundingBox" id="filter-1">
            <feGaussianBlur stdDeviation="7" in="SourceGraphic"></feGaussianBlur>
        </filter>
    </defs>
    <g id="Page-1" stroke="none" stroke-width="1" fill="none" fill-rule="evenodd">
        <g id="Desktop" transform="translate(-659.000000, -2097.000000)">
            <g id="info-section" transform="translate(21.000000, 1871.000000)">
                <g id="add-to-calendar" transform="translate(652.000000, 241.000000)">
                    <g id="Group-2">
                        <rect id="Rectangle-Copy" fill-opacity="0.4" fill="#003D8E" filter="url(#filter-1)" x="7" y="6" width="239" height="62" rx="31"></rect>
                        <rect id="Rectangle-Copy" fill="#003D8E" x="0" y="0" width="239" height="62" rx="31"></rect>
                        <path d="M35.1708984,39.1953125 C35.5159505,39.1953125 35.8414714,39.1595052 36.1474609,39.0878906 C36.4534505,39.016276 36.7415365,38.9186198 37.0117188,38.7949219 C37.281901,38.671224 37.5292969,38.5279948 37.7539062,38.3652344 C37.9785156,38.202474 38.1819661,38.0299479 38.3642578,37.8476562 C38.3837891,38.0690104 38.4147135,38.2822266 38.4570312,38.4873047 C38.499349,38.6923828 38.5563151,38.8632812 38.6279297,39 L38.6279297,39 L40.5126953,39 L40.5126953,38.84375 C40.3955078,38.5507812 40.304362,38.2073568 40.2392578,37.8134766 C40.1741536,37.4195964 40.1416016,37.046875 40.1416016,36.6953125 L40.1416016,36.6953125 L40.1416016,31.7832031 C40.1416016,31.1907552 40.0341797,30.6731771 39.8193359,30.2304688 C39.6044922,29.7877604 39.3098958,29.4182943 38.9355469,29.1220703 C38.5611979,28.8258464 38.116862,28.6044922 37.6025391,28.4580078 C37.0882161,28.3115234 36.5315755,28.2382812 35.9326172,28.2382812 C35.2750651,28.2382812 34.6875,28.3294271 34.1699219,28.5117188 C33.6523438,28.6940104 33.2128906,28.9332682 32.8515625,29.2294922 C32.4902344,29.5257161 32.2135417,29.859375 32.0214844,30.2304688 C31.8294271,30.6015625 31.7301432,30.9791667 31.7236328,31.3632812 L31.7236328,31.3632812 L33.5400391,31.3632812 C33.5400391,31.1419271 33.59375,30.9287109 33.7011719,30.7236328 C33.8085938,30.5185547 33.9599609,30.3411458 34.1552734,30.1914062 C34.3505859,30.0416667 34.5898438,29.921224 34.8730469,29.8300781 C35.15625,29.7389323 35.476888,29.6933594 35.8349609,29.6933594 C36.2190755,29.6933594 36.5657552,29.7421875 36.875,29.8398438 C37.1842448,29.9375 37.4462891,30.0758464 37.6611328,30.2548828 C37.8759766,30.4339193 38.0419922,30.6503906 38.1591797,30.9042969 C38.2763672,31.1582031 38.3349609,31.4446615 38.3349609,31.7636719 L38.3349609,31.7636719 L38.3349609,32.59375 L36.3623047,32.59375 C35.6266276,32.59375 34.9609375,32.6653646 34.3652344,32.8085938 C33.7695312,32.9518229 33.2600911,33.1682943 32.8369141,33.4580078 C32.413737,33.7477214 32.0865885,34.1106771 31.8554688,34.546875 C31.624349,34.9830729 31.5087891,35.4908854 31.5087891,36.0703125 C31.5087891,36.5130208 31.5950521,36.9248047 31.7675781,37.3056641 C31.9401042,37.6865234 32.1842448,38.0152995 32.5,38.2919922 C32.8157552,38.5686849 33.1998698,38.7884115 33.6523438,38.9511719 C34.1048177,39.1139323 34.6110026,39.1953125 35.1708984,39.1953125 Z M35.4345703,37.6230469 C35.0830078,37.6230469 34.773763,37.577474 34.5068359,37.4863281 C34.2399089,37.3951823 34.0185547,37.2698568 33.8427734,37.1103516 C33.6669922,36.9508464 33.5351562,36.7604167 33.4472656,36.5390625 C33.359375,36.3177083 33.3154297,36.0768229 33.3154297,35.8164062 C33.3154297,35.1458333 33.6083984,34.6542969 34.1943359,34.3417969 C34.7802734,34.0292969 35.6005859,33.8730469 36.6552734,33.8730469 L36.6552734,33.8730469 L38.3349609,33.8730469 L38.3349609,36.0117188 C38.2307943,36.2200521 38.0875651,36.4202474 37.9052734,36.6123047 C37.7229818,36.804362 37.5065104,36.9752604 37.2558594,37.125 C37.0052083,37.2747396 36.726888,37.3951823 36.4208984,37.4863281 C36.1149089,37.577474 35.7861328,37.6230469 35.4345703,37.6230469 Z M47.5537109,39.1953125 C48.2047526,39.1953125 48.7744141,39.0846354 49.2626953,38.8632812 C49.7509766,38.6419271 50.1708984,38.3164062 50.5224609,37.8867188 L50.5224609,37.8867188 L50.6005859,39 L52.2607422,39 L52.2607422,24 L50.4541016,24 L50.4541016,29.4785156 C50.1090495,29.0748698 49.7005208,28.7672526 49.2285156,28.5556641 C48.7565104,28.3440755 48.2047526,28.2382812 47.5732422,28.2382812 C46.9287109,28.2382812 46.3460286,28.3717448 45.8251953,28.6386719 C45.304362,28.905599 44.860026,29.2766927 44.4921875,29.7519531 C44.124349,30.2272135 43.8411458,30.7952474 43.6425781,31.4560547 C43.4440104,32.116862 43.3447266,32.8411458 43.3447266,33.6289062 L43.3447266,33.6289062 L43.3447266,33.8339844 C43.3447266,34.5891927 43.445638,35.2939453 43.6474609,35.9482422 C43.8492839,36.6025391 44.132487,37.1705729 44.4970703,37.6523438 C44.8616536,38.1341146 45.3027344,38.5117188 45.8203125,38.7851562 C46.3378906,39.0585938 46.9156901,39.1953125 47.5537109,39.1953125 Z M48.0029297,37.6621094 C47.5016276,37.6621094 47.0719401,37.5595703 46.7138672,37.3544922 C46.3557943,37.1494141 46.0611979,36.8710938 45.8300781,36.5195312 C45.5989583,36.1679688 45.4280599,35.7610677 45.3173828,35.2988281 C45.2067057,34.8365885 45.1513672,34.3483073 45.1513672,33.8339844 L45.1513672,33.8339844 L45.1513672,33.6289062 C45.1513672,33.1145833 45.2067057,32.6246745 45.3173828,32.1591797 C45.4280599,31.6936849 45.5989583,31.2835286 45.8300781,30.9287109 C46.0611979,30.5738932 46.3574219,30.2923177 46.71875,30.0839844 C47.0800781,29.875651 47.5146484,29.7714844 48.0224609,29.7714844 C48.6149089,29.7714844 49.1097005,29.9098307 49.5068359,30.1865234 C49.9039714,30.4632161 50.2197266,30.8164062 50.4541016,31.2460938 L50.4541016,31.2460938 L50.4541016,36.1484375 C50.3369141,36.3763021 50.2001953,36.5830078 50.0439453,36.7685547 C49.8876953,36.9541016 49.7086589,37.1136068 49.5068359,37.2470703 C49.305013,37.3805339 49.0804036,37.4830729 48.8330078,37.5546875 C48.585612,37.6263021 48.3089193,37.6621094 48.0029297,37.6621094 Z M59.5556641,39.1953125 C60.2067057,39.1953125 60.7763672,39.0846354 61.2646484,38.8632812 C61.7529297,38.6419271 62.1728516,38.3164062 62.5244141,37.8867188 L62.5244141,37.8867188 L62.6025391,39 L64.2626953,39 L64.2626953,24 L62.4560547,24 L62.4560547,29.4785156 C62.1110026,29.0748698 61.702474,28.7672526 61.2304688,28.5556641 C60.7584635,28.3440755 60.2067057,28.2382812 59.5751953,28.2382812 C58.9306641,28.2382812 58.3479818,28.3717448 57.8271484,28.6386719 C57.3063151,28.905599 56.8619792,29.2766927 56.4941406,29.7519531 C56.1263021,30.2272135 55.843099,30.7952474 55.6445312,31.4560547 C55.4459635,32.116862 55.3466797,32.8411458 55.3466797,33.6289062 L55.3466797,33.6289062 L55.3466797,33.8339844 C55.3466797,34.5891927 55.4475911,35.2939453 55.6494141,35.9482422 C55.851237,36.6025391 56.1344401,37.1705729 56.4990234,37.6523438 C56.8636068,38.1341146 57.3046875,38.5117188 57.8222656,38.7851562 C58.3398438,39.0585938 58.9176432,39.1953125 59.5556641,39.1953125 Z M60.0048828,37.6621094 C59.5035807,37.6621094 59.0738932,37.5595703 58.7158203,37.3544922 C58.3577474,37.1494141 58.063151,36.8710938 57.8320312,36.5195312 C57.6009115,36.1679688 57.430013,35.7610677 57.3193359,35.2988281 C57.2086589,34.8365885 57.1533203,34.3483073 57.1533203,33.8339844 L57.1533203,33.8339844 L57.1533203,33.6289062 C57.1533203,33.1145833 57.2086589,32.6246745 57.3193359,32.1591797 C57.430013,31.6936849 57.6009115,31.2835286 57.8320312,30.9287109 C58.063151,30.5738932 58.359375,30.2923177 58.7207031,30.0839844 C59.0820312,29.875651 59.5166016,29.7714844 60.0244141,29.7714844 C60.616862,29.7714844 61.1116536,29.9098307 61.5087891,30.1865234 C61.9059245,30.4632161 62.2216797,30.8164062 62.4560547,31.2460938 L62.4560547,31.2460938 L62.4560547,36.1484375 C62.3388672,36.3763021 62.2021484,36.5830078 62.0458984,36.7685547 C61.8896484,36.9541016 61.710612,37.1136068 61.5087891,37.2470703 C61.3069661,37.3805339 61.0823568,37.4830729 60.8349609,37.5546875 C60.5875651,37.6263021 60.3108724,37.6621094 60.0048828,37.6621094 Z M85.4931641,39.1953125 C85.773112,39.1953125 86.0546875,39.1822917 86.3378906,39.15625 C86.6210938,39.1302083 86.8896484,39.0927734 87.1435547,39.0439453 C87.3974609,38.9951172 87.6318359,38.9365234 87.8466797,38.8681641 C88.0615234,38.7998047 88.2438151,38.7200521 88.3935547,38.6289062 L88.3935547,38.6289062 L88.1396484,37.3496094 C88.0289714,37.375651 87.8873698,37.4065755 87.7148438,37.4423828 C87.5423177,37.4781901 87.3567708,37.5123698 87.1582031,37.5449219 C86.9596354,37.577474 86.7561849,37.6051432 86.5478516,37.6279297 C86.3395182,37.6507161 86.1376953,37.6621094 85.9423828,37.6621094 C85.6754557,37.6621094 85.4231771,37.6295573 85.1855469,37.5644531 C84.9479167,37.499349 84.7379557,37.3870443 84.5556641,37.2275391 C84.3733724,37.0680339 84.2301432,36.8548177 84.1259766,36.5878906 C84.0218099,36.3209635 83.9697266,35.9824219 83.9697266,35.5722656 L83.9697266,35.5722656 L83.9697266,29.8300781 L87.9931641,29.8300781 L87.9931641,28.4335938 L83.9697266,28.4335938 L83.9697266,25.875 L82.1533203,25.875 L82.1533203,28.4335938 L79.3798828,28.4335938 L79.3798828,29.8300781 L82.1533203,29.8300781 L82.1533203,35.5722656 C82.1533203,36.2233073 82.2395833,36.7783203 82.4121094,37.2373047 C82.5846354,37.6962891 82.820638,38.070638 83.1201172,38.3603516 C83.4195964,38.6500651 83.7727865,38.8616536 84.1796875,38.9951172 C84.5865885,39.1285807 85.0244141,39.1953125 85.4931641,39.1953125 Z M96.0009766,39.1953125 C96.7431641,39.1953125 97.4104818,39.0585938 98.0029297,38.7851562 C98.5953776,38.5117188 99.0983073,38.1341146 99.5117188,37.6523438 C99.9251302,37.1705729 100.242513,36.6041667 100.463867,35.953125 C100.685221,35.3020833 100.795898,34.5957031 100.795898,33.8339844 L100.795898,33.8339844 L100.795898,33.6191406 C100.795898,32.8574219 100.685221,32.1494141 100.463867,31.4951172 C100.242513,30.8408203 99.9251302,30.2727865 99.5117188,29.7910156 C99.0983073,29.3092448 98.59375,28.930013 97.9980469,28.6533203 C97.4023438,28.3766276 96.7301432,28.2382812 95.9814453,28.2382812 C95.2392578,28.2382812 94.5719401,28.3766276 93.9794922,28.6533203 C93.3870443,28.930013 92.8841146,29.3092448 92.4707031,29.7910156 C92.0572917,30.2727865 91.7399089,30.8408203 91.5185547,31.4951172 C91.2972005,32.1494141 91.1865234,32.8574219 91.1865234,33.6191406 L91.1865234,33.6191406 L91.1865234,33.8339844 C91.1865234,34.5957031 91.2972005,35.3020833 91.5185547,35.953125 C91.7399089,36.6041667 92.0572917,37.1705729 92.4707031,37.6523438 C92.8841146,38.1341146 93.3886719,38.5117188 93.984375,38.7851562 C94.5800781,39.0585938 95.2522786,39.1953125 96.0009766,39.1953125 Z M96.0009766,37.7304688 C95.4996745,37.7304688 95.0602214,37.6263021 94.6826172,37.4179688 C94.305013,37.2096354 93.9908854,36.9264323 93.7402344,36.5683594 C93.4895833,36.2102865 93.3024089,35.7952474 93.1787109,35.3232422 C93.055013,34.851237 92.9931641,34.3548177 92.9931641,33.8339844 L92.9931641,33.8339844 L92.9931641,33.6191406 C92.9931641,33.1048177 93.055013,32.6116536 93.1787109,32.1396484 C93.3024089,31.6676432 93.4895833,31.2526042 93.7402344,30.8945312 C93.9908854,30.5364583 94.3017578,30.2516276 94.6728516,30.0400391 C95.0439453,29.8284505 95.4801432,29.7226562 95.9814453,29.7226562 C96.4827474,29.7226562 96.9205729,29.8284505 97.2949219,30.0400391 C97.6692708,30.2516276 97.9817708,30.5364583 98.2324219,30.8945312 C98.4830729,31.2526042 98.671875,31.6676432 98.7988281,32.1396484 C98.9257812,32.6116536 98.9892578,33.1048177 98.9892578,33.6191406 L98.9892578,33.6191406 L98.9892578,33.8339844 C98.9892578,34.3548177 98.9274089,34.851237 98.8037109,35.3232422 C98.680013,35.7952474 98.4928385,36.2102865 98.2421875,36.5683594 C97.9915365,36.9264323 97.6790365,37.2096354 97.3046875,37.4179688 C96.9303385,37.6263021 96.4957682,37.7304688 96.0009766,37.7304688 Z M120.200195,39.1953125 C120.760091,39.1953125 121.297201,39.0992839 121.811523,38.9072266 C122.325846,38.7151693 122.781576,38.4580078 123.178711,38.1357422 C123.575846,37.8134766 123.893229,37.4391276 124.130859,37.0126953 C124.36849,36.586263 124.49056,36.1386719 124.49707,35.6699219 L124.49707,35.6699219 L122.788086,35.6699219 C122.781576,35.9628906 122.705078,36.2347005 122.558594,36.4853516 C122.412109,36.7360026 122.218424,36.9541016 121.977539,37.1396484 C121.736654,37.3251953 121.461589,37.4700521 121.152344,37.5742188 C120.843099,37.6783854 120.525716,37.7304688 120.200195,37.7304688 C119.633789,37.7304688 119.160156,37.6181641 118.779297,37.3935547 C118.398438,37.1689453 118.092448,36.8759766 117.861328,36.5146484 C117.630208,36.1533203 117.464193,35.7464193 117.363281,35.2939453 C117.26237,34.8414714 117.211914,34.3841146 117.211914,33.921875 L117.211914,33.921875 L117.211914,33.5117188 C117.211914,33.0559896 117.26237,32.6035156 117.363281,32.1542969 C117.464193,31.7050781 117.631836,31.2998047 117.866211,30.9384766 C118.100586,30.5771484 118.408203,30.2841797 118.789062,30.0595703 C119.169922,29.8349609 119.640299,29.7226562 120.200195,29.7226562 C120.564779,29.7226562 120.904948,29.7845052 121.220703,29.9082031 C121.536458,30.031901 121.808268,30.2011719 122.036133,30.4160156 C122.263997,30.6308594 122.444661,30.8798828 122.578125,31.1630859 C122.711589,31.4462891 122.781576,31.7473958 122.788086,32.0664062 L122.788086,32.0664062 L124.49707,32.0664062 C124.49707,31.5325521 124.389648,31.03125 124.174805,30.5625 C123.959961,30.09375 123.662109,29.6884766 123.28125,29.3466797 C122.900391,29.0048828 122.447917,28.7347005 121.923828,28.5361328 C121.39974,28.3375651 120.825195,28.2382812 120.200195,28.2382812 C119.399414,28.2382812 118.699544,28.3815104 118.100586,28.6679688 C117.501628,28.9544271 117.001953,29.3401693 116.601562,29.8251953 C116.201172,30.3102214 115.900065,30.8717448 115.698242,31.5097656 C115.496419,32.1477865 115.395508,32.8151042 115.395508,33.5117188 L115.395508,33.5117188 L115.395508,33.921875 C115.395508,34.625 115.496419,35.2939453 115.698242,35.9287109 C115.900065,36.5634766 116.201172,37.1233724 116.601562,37.6083984 C117.001953,38.0934245 117.501628,38.4791667 118.100586,38.765625 C118.699544,39.0520833 119.399414,39.1953125 120.200195,39.1953125 Z M131.186523,39.1953125 C131.531576,39.1953125 131.857096,39.1595052 132.163086,39.0878906 C132.469076,39.016276 132.757161,38.9186198 133.027344,38.7949219 C133.297526,38.671224 133.544922,38.5279948 133.769531,38.3652344 C133.994141,38.202474 134.197591,38.0299479 134.379883,37.8476562 C134.399414,38.0690104 134.430339,38.2822266 134.472656,38.4873047 C134.514974,38.6923828 134.57194,38.8632812 134.643555,39 L134.643555,39 L136.52832,39 L136.52832,38.84375 C136.411133,38.5507812 136.319987,38.2073568 136.254883,37.8134766 C136.189779,37.4195964 136.157227,37.046875 136.157227,36.6953125 L136.157227,36.6953125 L136.157227,31.7832031 C136.157227,31.1907552 136.049805,30.6731771 135.834961,30.2304688 C135.620117,29.7877604 135.325521,29.4182943 134.951172,29.1220703 C134.576823,28.8258464 134.132487,28.6044922 133.618164,28.4580078 C133.103841,28.3115234 132.547201,28.2382812 131.948242,28.2382812 C131.29069,28.2382812 130.703125,28.3294271 130.185547,28.5117188 C129.667969,28.6940104 129.228516,28.9332682 128.867188,29.2294922 C128.505859,29.5257161 128.229167,29.859375 128.037109,30.2304688 C127.845052,30.6015625 127.745768,30.9791667 127.739258,31.3632812 L127.739258,31.3632812 L129.555664,31.3632812 C129.555664,31.1419271 129.609375,30.9287109 129.716797,30.7236328 C129.824219,30.5185547 129.975586,30.3411458 130.170898,30.1914062 C130.366211,30.0416667 130.605469,29.921224 130.888672,29.8300781 C131.171875,29.7389323 131.492513,29.6933594 131.850586,29.6933594 C132.234701,29.6933594 132.58138,29.7421875 132.890625,29.8398438 C133.19987,29.9375 133.461914,30.0758464 133.676758,30.2548828 C133.891602,30.4339193 134.057617,30.6503906 134.174805,30.9042969 C134.291992,31.1582031 134.350586,31.4446615 134.350586,31.7636719 L134.350586,31.7636719 L134.350586,32.59375 L132.37793,32.59375 C131.642253,32.59375 130.976562,32.6653646 130.380859,32.8085938 C129.785156,32.9518229 129.275716,33.1682943 128.852539,33.4580078 C128.429362,33.7477214 128.102214,34.1106771 127.871094,34.546875 C127.639974,34.9830729 127.524414,35.4908854 127.524414,36.0703125 C127.524414,36.5130208 127.610677,36.9248047 127.783203,37.3056641 C127.955729,37.6865234 128.19987,38.0152995 128.515625,38.2919922 C128.83138,38.5686849 129.215495,38.7884115 129.667969,38.9511719 C130.120443,39.1139323 130.626628,39.1953125 131.186523,39.1953125 Z M131.450195,37.6230469 C131.098633,37.6230469 130.789388,37.577474 130.522461,37.4863281 C130.255534,37.3951823 130.03418,37.2698568 129.858398,37.1103516 C129.682617,36.9508464 129.550781,36.7604167 129.462891,36.5390625 C129.375,36.3177083 129.331055,36.0768229 129.331055,35.8164062 C129.331055,35.1458333 129.624023,34.6542969 130.209961,34.3417969 C130.795898,34.0292969 131.616211,33.8730469 132.670898,33.8730469 L132.670898,33.8730469 L134.350586,33.8730469 L134.350586,36.0117188 C134.246419,36.2200521 134.10319,36.4202474 133.920898,36.6123047 C133.738607,36.804362 133.522135,36.9752604 133.271484,37.125 C133.020833,37.2747396 132.742513,37.3951823 132.436523,37.4863281 C132.130534,37.577474 131.801758,37.6230469 131.450195,37.6230469 Z M148.833008,39 L148.833008,37.4375 L145.385742,37.4375 L145.385742,24 L139.985352,24 L139.985352,25.5722656 L143.579102,25.5722656 L143.579102,37.4375 L139.985352,37.4375 L139.985352,39 L148.833008,39 Z M156.37207,39.1953125 C156.886393,39.1953125 157.361654,39.1383464 157.797852,39.0244141 C158.234049,38.9104818 158.624674,38.7591146 158.969727,38.5703125 C159.314779,38.3815104 159.619141,38.1650391 159.882812,37.9208984 C160.146484,37.6767578 160.366211,37.421224 160.541992,37.1542969 L160.541992,37.1542969 L159.438477,36.2949219 C159.106445,36.7246094 158.689779,37.0696615 158.188477,37.3300781 C157.687174,37.5904948 157.114258,37.7207031 156.469727,37.7207031 C155.981445,37.7207031 155.535482,37.6295573 155.131836,37.4472656 C154.72819,37.264974 154.38151,37.0159505 154.091797,36.7001953 C153.802083,36.3844401 153.574219,36.014974 153.408203,35.5917969 C153.242188,35.1686198 153.149414,34.7161458 153.129883,34.234375 L153.129883,34.234375 L160.678711,34.234375 L160.678711,33.4238281 C160.678711,32.688151 160.585938,32.0045573 160.400391,31.3730469 C160.214844,30.7415365 159.933268,30.1930339 159.555664,29.7275391 C159.17806,29.2620443 158.704427,28.8974609 158.134766,28.6337891 C157.565104,28.3701172 156.899414,28.2382812 156.137695,28.2382812 C155.532227,28.2382812 154.941406,28.3619792 154.365234,28.609375 C153.789062,28.8567708 153.27474,29.2132161 152.822266,29.6787109 C152.369792,30.1442057 152.006836,30.7138672 151.733398,31.3876953 C151.459961,32.0615234 151.323242,32.8248698 151.323242,33.6777344 L151.323242,33.6777344 L151.323242,34.0878906 C151.323242,34.8235677 151.44694,35.5039062 151.694336,36.1289062 C151.941732,36.7539062 152.286784,37.2942708 152.729492,37.75 C153.172201,38.2057292 153.704427,38.5605469 154.326172,38.8144531 C154.947917,39.0683594 155.629883,39.1953125 156.37207,39.1953125 Z M158.87207,32.75 L153.188477,32.75 C153.260091,32.2617188 153.385417,31.8304036 153.564453,31.4560547 C153.74349,31.0817057 153.963216,30.7659505 154.223633,30.5087891 C154.484049,30.2516276 154.777018,30.0563151 155.102539,29.9228516 C155.42806,29.789388 155.773112,29.7226562 156.137695,29.7226562 C156.599935,29.7226562 156.998698,29.8072917 157.333984,29.9765625 C157.669271,30.1458333 157.947591,30.3671875 158.168945,30.640625 C158.390299,30.9140625 158.557943,31.2233073 158.671875,31.5683594 C158.785807,31.9134115 158.852539,32.2617188 158.87207,32.6132812 L158.87207,32.6132812 L158.87207,32.75 Z M165.512695,39 L165.512695,31.421875 C165.786133,30.9270833 166.152344,30.5283203 166.611328,30.2255859 C167.070312,29.9228516 167.602539,29.7714844 168.208008,29.7714844 C168.592122,29.7714844 168.932292,29.8170573 169.228516,29.9082031 C169.52474,29.999349 169.775391,30.1458333 169.980469,30.3476562 C170.185547,30.5494792 170.340169,30.813151 170.444336,31.1386719 C170.548503,31.4641927 170.600586,31.8613281 170.600586,32.3300781 L170.600586,32.3300781 L170.600586,39 L172.407227,39 L172.407227,32.2910156 C172.407227,31.5878906 172.320964,30.9807943 172.148438,30.4697266 C171.975911,29.9586589 171.730143,29.5371094 171.411133,29.2050781 C171.092122,28.8730469 170.70638,28.6289062 170.253906,28.4726562 C169.801432,28.3164062 169.298503,28.2382812 168.745117,28.2382812 C168.055013,28.2447917 167.430013,28.4026693 166.870117,28.7119141 C166.310221,29.0211589 165.838216,29.4492188 165.454102,29.9960938 L165.454102,29.9960938 L165.327148,28.4335938 L163.706055,28.4335938 L163.706055,39 L165.512695,39 Z M179.575195,39.1953125 C180.226237,39.1953125 180.795898,39.0846354 181.28418,38.8632812 C181.772461,38.6419271 182.192383,38.3164062 182.543945,37.8867188 L182.543945,37.8867188 L182.62207,39 L184.282227,39 L184.282227,24 L182.475586,24 L182.475586,29.4785156 C182.130534,29.0748698 181.722005,28.7672526 181.25,28.5556641 C180.777995,28.3440755 180.226237,28.2382812 179.594727,28.2382812 C178.950195,28.2382812 178.367513,28.3717448 177.84668,28.6386719 C177.325846,28.905599 176.88151,29.2766927 176.513672,29.7519531 C176.145833,30.2272135 175.86263,30.7952474 175.664062,31.4560547 C175.465495,32.116862 175.366211,32.8411458 175.366211,33.6289062 L175.366211,33.6289062 L175.366211,33.8339844 C175.366211,34.5891927 175.467122,35.2939453 175.668945,35.9482422 C175.870768,36.6025391 176.153971,37.1705729 176.518555,37.6523438 C176.883138,38.1341146 177.324219,38.5117188 177.841797,38.7851562 C178.359375,39.0585938 178.937174,39.1953125 179.575195,39.1953125 Z M180.024414,37.6621094 C179.523112,37.6621094 179.093424,37.5595703 178.735352,37.3544922 C178.377279,37.1494141 178.082682,36.8710938 177.851562,36.5195312 C177.620443,36.1679688 177.449544,35.7610677 177.338867,35.2988281 C177.22819,34.8365885 177.172852,34.3483073 177.172852,33.8339844 L177.172852,33.8339844 L177.172852,33.6289062 C177.172852,33.1145833 177.22819,32.6246745 177.338867,32.1591797 C177.449544,31.6936849 177.620443,31.2835286 177.851562,30.9287109 C178.082682,30.5738932 178.378906,30.2923177 178.740234,30.0839844 C179.101562,29.875651 179.536133,29.7714844 180.043945,29.7714844 C180.636393,29.7714844 181.131185,29.9098307 181.52832,30.1865234 C181.925456,30.4632161 182.241211,30.8164062 182.475586,31.2460938 L182.475586,31.2460938 L182.475586,36.1484375 C182.358398,36.3763021 182.22168,36.5830078 182.06543,36.7685547 C181.90918,36.9541016 181.730143,37.1136068 181.52832,37.2470703 C181.326497,37.3805339 181.101888,37.4830729 180.854492,37.5546875 C180.607096,37.6263021 180.330404,37.6621094 180.024414,37.6621094 Z M191.196289,39.1953125 C191.541341,39.1953125 191.866862,39.1595052 192.172852,39.0878906 C192.478841,39.016276 192.766927,38.9186198 193.037109,38.7949219 C193.307292,38.671224 193.554688,38.5279948 193.779297,38.3652344 C194.003906,38.202474 194.207357,38.0299479 194.389648,37.8476562 C194.40918,38.0690104 194.440104,38.2822266 194.482422,38.4873047 C194.52474,38.6923828 194.581706,38.8632812 194.65332,39 L194.65332,39 L196.538086,39 L196.538086,38.84375 C196.420898,38.5507812 196.329753,38.2073568 196.264648,37.8134766 C196.199544,37.4195964 196.166992,37.046875 196.166992,36.6953125 L196.166992,36.6953125 L196.166992,31.7832031 C196.166992,31.1907552 196.05957,30.6731771 195.844727,30.2304688 C195.629883,29.7877604 195.335286,29.4182943 194.960938,29.1220703 C194.586589,28.8258464 194.142253,28.6044922 193.62793,28.4580078 C193.113607,28.3115234 192.556966,28.2382812 191.958008,28.2382812 C191.300456,28.2382812 190.712891,28.3294271 190.195312,28.5117188 C189.677734,28.6940104 189.238281,28.9332682 188.876953,29.2294922 C188.515625,29.5257161 188.238932,29.859375 188.046875,30.2304688 C187.854818,30.6015625 187.755534,30.9791667 187.749023,31.3632812 L187.749023,31.3632812 L189.56543,31.3632812 C189.56543,31.1419271 189.619141,30.9287109 189.726562,30.7236328 C189.833984,30.5185547 189.985352,30.3411458 190.180664,30.1914062 C190.375977,30.0416667 190.615234,29.921224 190.898438,29.8300781 C191.181641,29.7389323 191.502279,29.6933594 191.860352,29.6933594 C192.244466,29.6933594 192.591146,29.7421875 192.900391,29.8398438 C193.209635,29.9375 193.47168,30.0758464 193.686523,30.2548828 C193.901367,30.4339193 194.067383,30.6503906 194.18457,30.9042969 C194.301758,31.1582031 194.360352,31.4446615 194.360352,31.7636719 L194.360352,31.7636719 L194.360352,32.59375 L192.387695,32.59375 C191.652018,32.59375 190.986328,32.6653646 190.390625,32.8085938 C189.794922,32.9518229 189.285482,33.1682943 188.862305,33.4580078 C188.439128,33.7477214 188.111979,34.1106771 187.880859,34.546875 C187.64974,34.9830729 187.53418,35.4908854 187.53418,36.0703125 C187.53418,36.5130208 187.620443,36.9248047 187.792969,37.3056641 C187.965495,37.6865234 188.209635,38.0152995 188.525391,38.2919922 C188.841146,38.5686849 189.22526,38.7884115 189.677734,38.9511719 C190.130208,39.1139323 190.636393,39.1953125 191.196289,39.1953125 Z M191.459961,37.6230469 C191.108398,37.6230469 190.799154,37.577474 190.532227,37.4863281 C190.265299,37.3951823 190.043945,37.2698568 189.868164,37.1103516 C189.692383,36.9508464 189.560547,36.7604167 189.472656,36.5390625 C189.384766,36.3177083 189.34082,36.0768229 189.34082,35.8164062 C189.34082,35.1458333 189.633789,34.6542969 190.219727,34.3417969 C190.805664,34.0292969 191.625977,33.8730469 192.680664,33.8730469 L192.680664,33.8730469 L194.360352,33.8730469 L194.360352,36.0117188 C194.256185,36.2200521 194.112956,36.4202474 193.930664,36.6123047 C193.748372,36.804362 193.531901,36.9752604 193.28125,37.125 C193.030599,37.2747396 192.752279,37.3951823 192.446289,37.4863281 C192.140299,37.577474 191.811523,37.6230469 191.459961,37.6230469 Z M203.041992,39 L203.041992,32.2226562 C203.289388,31.5325521 203.67513,30.9954427 204.199219,30.6113281 C204.723307,30.2272135 205.408529,30.0351562 206.254883,30.0351562 C206.599935,30.0351562 206.930339,30.0530599 207.246094,30.0888672 C207.561849,30.1246745 207.895508,30.1816406 208.24707,30.2597656 L208.24707,30.2597656 L208.491211,28.4921875 C208.400065,28.453125 208.284505,28.4173177 208.144531,28.3847656 C208.004557,28.3522135 207.851562,28.3245443 207.685547,28.3017578 C207.519531,28.2789714 207.345378,28.2626953 207.163086,28.2529297 C206.980794,28.2431641 206.805013,28.2382812 206.635742,28.2382812 C205.867513,28.2382812 205.182292,28.4059245 204.580078,28.7412109 C203.977865,29.0764974 203.461914,29.5338542 203.032227,30.1132812 L203.032227,30.1132812 L202.944336,28.4335938 L201.225586,28.4335938 L201.225586,39 L203.041992,39 Z" id="addtocalendar" fill="#FFFFFF" fill-rule="nonzero"></path>
                    </g>
                </g>
            </g>
        </g>
    </g>
</svg>