<?xml version="1.0" encoding="UTF-8"?>
<svg width="922px" height="787px" viewBox="0 0 922 787" version="1.1" xmlns="http://www.w3.org/2000/svg" xmlns:xlink="http://www.w3.org/1999/xlink">
    <title>orange red copy</title>
    <defs>
        <polygon id="path-1" points="0 0.516239383 771.80581 0.516239383 771.80581 438.518621 0 438.518621"></polygon>
    </defs>
    <g id="Page-1" stroke="none" stroke-width="1" fill="none" fill-rule="evenodd">
        <g id="Desktop" transform="translate(18.000000, -1850.000000)">
            <g id="info-section" transform="translate(-18.000000, 1850.000000)">
                <g id="orange-red-copy" transform="translate(461.000000, 393.500000) rotate(30.000000) translate(-461.000000, -393.500000) translate(57.000000, 173.000000)">
                    <path d="M518.798038,317.96099 C473.510813,376.867364 412.324601,429.589209 338.464196,439.558913 C319.131087,442.169011 298.744749,441.603203 281.078017,433.367004 C257.486663,422.369004 242.007978,399.498052 221.292814,383.777604 C202.052007,369.175653 178.037054,360.910753 153.840793,360.563888 C135.465315,360.299844 116.671183,364.413843 98.9484106,359.577413 C77.8393158,353.81601 61.9205497,336.126713 51.7211994,316.855614 C30.0319218,275.874699 30.0929069,224.24101 51.8769587,183.309297 C69.9565762,149.340304 101.720761,122.620217 112.750004,85.7820023 C116.853314,72.0771435 118.03181,57.1111064 125.936801,45.1684532 C133.819541,33.2627006 147.218138,26.2245385 160.509599,20.8985612 C185.364334,10.9395168 212.580183,5.1904134 239.059265,9.26833255 C288.220694,16.8378623 327.205848,56.4280365 375.839013,66.8454676 C434.756414,79.4662707 493.129893,47.2972041 552.761808,38.6083581 C587.414546,33.5603649 623.232594,36.6075291 656.520583,47.4357861 C675.948466,53.7547978 695.162901,63.1939547 707.918682,79.0841451 C736.798436,115.060527 723.209466,169.08045 741.003937,211.584127 C758.571774,253.547415 806.120393,283.142465 807.469483,328.580964 C808.15433,351.625758 795.738088,373.713598 778.311176,388.905959 C760.88344,404.097499 738.895006,413.167651 716.637907,419.572763 C674.05051,431.827021 625.498109,434.405959 587.829904,411.145501 C551.94263,388.98386 532.266685,347.544559 498.218854,322.674418" id="Fill-1" fill="#FEDEC9"></path>
                    <g id="Group-5" transform="translate(0.747768, 0.757387)">
                        <mask id="mask-2" fill="white">
                            <use xlink:href="#path-1"></use>
                        </mask>
                        <g id="Clip-4"></g>
                        <path d="M481.852691,312.871661 C441.31365,365.949481 387.862832,415.226427 321.377852,431.120168 C303.569948,435.377081 284.603104,437.677068 266.423945,434.557366 C248.276819,431.442611 233.591725,422.001038 220.2898,409.618715 C208.271662,398.430505 197.395214,385.921183 183.964336,376.352612 C169.570825,366.097921 152.729661,359.266408 135.301225,356.511207 C116.219391,353.494588 97.3502892,357.508225 78.2471,356.303392 C59.9644493,355.151337 44.5113836,346.345579 32.5647035,332.641321 C9.53294973,306.219925 0.274580624,268.476724 2.90046831,234.001664 C4.27049667,216.011628 8.96210458,198.22446 16.9268318,182.036315 C24.3856013,166.877349 34.6279596,153.334725 44.7438285,139.900131 C54.8777673,126.441621 65.1538013,112.886627 72.5805378,97.6757075 C76.1583817,90.3469225 78.9403277,82.7171353 80.9099488,74.7995406 C83.1054439,65.9731666 84.591284,56.8886729 87.9876074,48.4119563 C95.1120834,30.6313854 111.791439,21.5147299 128.727881,14.9207201 C147.059813,7.78325706 166.547399,2.98948784 186.294534,2.95732596 C221.80521,2.89959951 252.161851,21.1502286 282.283584,37.8109063 C296.51693,45.6831446 311.029539,53.2865425 326.504781,58.4101771 C343.40919,64.0071687 361.136601,65.9005962 378.872226,64.7757551 C416.391126,62.3982501 451.922335,48.554623 488.131166,39.6078482 C526.781079,30.0574196 566.306562,28.4971561 605.101034,38.343639 C622.522078,42.7646603 640.055648,48.9554095 654.838484,59.4401819 C668.874704,69.3946957 678.56593,83.3818141 683.830025,99.7282951 C693.773409,130.603698 690.23499,163.991027 699.129497,195.120427 C707.518046,224.480098 728.984288,246.243794 746.655846,270.162336 C755.248093,281.791741 763.192286,294.323329 767.017359,308.422601 C771.448596,324.758362 769.322916,341.76045 761.795153,356.846845 C745.029554,390.449411 708.785404,406.792593 674.379458,415.99254 C640.500004,425.052293 602.799583,428.026855 569.556683,414.821517 C537.77991,402.198392 517.547351,374.738746 496.079466,349.523008 C486.050662,337.744339 475.465796,326.426656 463.027943,317.168158 C461.753192,316.219795 460.523616,318.36557 461.784404,319.304862 C489.345958,339.819192 506.875421,370.318549 531.9154,393.450361 C544.027995,404.640221 557.873659,413.474842 573.467999,418.901953 C590.23524,424.736447 608.207417,426.688426 625.883083,426.058383 C643.52343,425.429165 661.051251,422.316884 678.03451,417.557751 C695.775063,412.586679 713.366128,405.997617 728.906258,395.923527 C756.473562,378.051419 777.236719,346.672971 770.540993,312.656424 C764.628844,282.623827 740.945752,259.983514 723.466392,236.300826 C714.011717,223.490502 705.911466,209.884378 701.505691,194.462345 C696.791906,177.963302 695.521263,160.745976 693.890863,143.736465 C692.382025,127.997762 690.696594,112.019081 685.514635,96.9961847 C680.224255,81.656618 671.026667,68.4933384 658.047537,58.7383932 C643.673739,47.9344761 626.330724,41.4938537 609.13309,36.843576 C589.934623,31.6523189 570.039642,28.9960776 550.157804,28.9383511 C510.39002,28.8237229 473.118349,41.3800501 435.174806,51.6957665 C416.11597,56.8771276 396.700665,61.3913359 376.919853,62.4163927 C358.202703,63.3853724 339.771387,60.7769615 322.172929,54.2753141 C289.665967,42.2649141 261.81283,20.4401933 229.285334,8.46442916 C212.372712,2.23657002 194.678155,-0.517806244 176.679695,0.866803859 C157.418805,2.3478996 138.458532,7.79645168 120.796008,15.5334451 C105.303517,22.3212508 91.6976901,32.0390861 85.3855391,48.3393859 C82.0853149,56.861459 80.6150806,65.9335827 78.3801603,74.761606 C76.1419545,83.602824 72.8326953,92.0424308 68.5862645,100.105991 C52.3011612,131.025926 25.5198994,155.193516 11.6824487,187.576405 C-2.31680995,220.340287 -3.75418982,258.297901 7.47544311,292.10086 C17.6742693,322.803909 39.6234707,354.475937 74.080341,358.412881 C94.0517077,360.693901 114.025538,355.764887 134.019082,358.797174 C152.737053,361.637316 170.736335,369.211026 185.786934,380.753841 C199.865043,391.550337 211.19981,405.413756 224.706253,416.864209 C237.891544,428.041699 252.780335,435.386977 270.016573,437.57316 C304.123544,441.896871 340.251882,430.85875 370.325154,415.310543 C401.103975,399.396186 428.248278,376.962863 452.029112,351.860105 C463.372093,339.887639 473.966814,327.229878 483.980013,314.121027 C484.945111,312.857642 482.805468,311.623945 481.852691,312.871661" id="Fill-3" fill="#F4796D" mask="url(#mask-2)"></path>
                    </g>
                </g>
            </g>
        </g>
    </g>
</svg>