<?xml version="1.0" encoding="UTF-8"?>
<svg width="192px" height="85px" viewBox="0 0 192 85" version="1.1" xmlns="http://www.w3.org/2000/svg" xmlns:xlink="http://www.w3.org/1999/xlink">
    <title>email us</title>
    <defs>
        <filter x="-14.1%" y="-50.0%" width="128.2%" height="200.0%" filterUnits="objectBoundingBox" id="filter-1">
            <feGaussianBlur stdDeviation="7" in="SourceGraphic"></feGaussianBlur>
        </filter>
    </defs>
    <g id="Page-1" stroke="none" stroke-width="1" fill="none" fill-rule="evenodd">
        <g id="Desktop" transform="translate(-185.000000, -4462.000000)">
            <g id="contacts-section" transform="translate(-1.000000, 4224.000000)">
                <g id="email-us" transform="translate(202.227218, 256.375968)">
                    <g id="mobile_email-us-copy" transform="translate(5.000000, 3.000000)" fill="#008297" fill-opacity="0.4">
                        <rect id="Rectangle" filter="url(#filter-1)" x="0" y="0" width="149" height="42" rx="19"></rect>
                    </g>
                    <g id="mobile_email-us">
                        <rect id="Rectangle" fill="#008297" fill-rule="evenodd" x="0" y="0" width="149" height="42" rx="19"></rect>
                        <path d="M31.1181641,27.1757812 C31.5810547,27.1757812 32.0087891,27.1245117 32.4013672,27.0219727 C32.7939453,26.9194336 33.1455078,26.7832031 33.4560547,26.6132812 C33.7666016,26.4433594 34.0405273,26.2485352 34.277832,26.0288086 C34.5151367,25.809082 34.7128906,25.5791016 34.8710938,25.3388672 L34.8710938,25.3388672 L33.8779297,24.5654297 C33.5791016,24.9521484 33.2041016,25.2626953 32.7529297,25.4970703 C32.3017578,25.7314453 31.7861328,25.8486328 31.2060547,25.8486328 C30.7666016,25.8486328 30.3652344,25.7666016 30.0019531,25.6025391 C29.6386719,25.4384766 29.3266602,25.2143555 29.065918,24.9301758 C28.8051758,24.6459961 28.6000977,24.3134766 28.4506836,23.9326172 C28.3012695,23.5517578 28.2177734,23.1445312 28.2001953,22.7109375 L28.2001953,22.7109375 L34.9941406,22.7109375 L34.9941406,21.9814453 C34.9941406,21.3193359 34.9106445,20.7041016 34.7436523,20.1357422 C34.5766602,19.5673828 34.3232422,19.0737305 33.9833984,18.6547852 C33.6435547,18.2358398 33.2172852,17.9077148 32.7045898,17.6704102 C32.1918945,17.4331055 31.5927734,17.3144531 30.9072266,17.3144531 C30.3623047,17.3144531 29.8305664,17.4257812 29.3120117,17.6484375 C28.793457,17.8710938 28.3305664,18.1918945 27.9233398,18.6108398 C27.5161133,19.0297852 27.1894531,19.5424805 26.9433594,20.1489258 C26.6972656,20.7553711 26.5742188,21.4423828 26.5742188,22.2099609 L26.5742188,22.2099609 L26.5742188,22.5791016 C26.5742188,23.2412109 26.6855469,23.8535156 26.9082031,24.4160156 C27.1308594,24.9785156 27.4414062,25.4648438 27.8398438,25.875 C28.2382812,26.2851562 28.7172852,26.6044922 29.2768555,26.8330078 C29.8364258,27.0615234 30.4501953,27.1757812 31.1181641,27.1757812 Z M33.3681641,21.375 L28.2529297,21.375 C28.3173828,20.9355469 28.4301758,20.5473633 28.5913086,20.2104492 C28.7524414,19.8735352 28.9501953,19.5893555 29.1845703,19.3579102 C29.4189453,19.1264648 29.6826172,18.9506836 29.9755859,18.8305664 C30.2685547,18.7104492 30.5791016,18.6503906 30.9072266,18.6503906 C31.3232422,18.6503906 31.6821289,18.7265625 31.9838867,18.8789062 C32.2856445,19.03125 32.5361328,19.2304688 32.7353516,19.4765625 C32.9345703,19.7226562 33.0854492,20.0009766 33.1879883,20.3115234 C33.2905273,20.6220703 33.3505859,20.9355469 33.3681641,21.2519531 L33.3681641,21.2519531 L33.3681641,21.375 Z M44.8291016,22.0693359 L44.8291016,20.7333984 L38.1054688,20.7333984 L38.1054688,22.0693359 L44.8291016,22.0693359 Z M49.3642578,27 L49.3642578,19.4326172 C49.4521484,19.2099609 49.5898438,19.03125 49.7773438,18.8964844 C49.9648438,18.7617188 50.2285156,18.6943359 50.5683594,18.6943359 C50.9375,18.6884766 51.2070312,18.7880859 51.3769531,18.9931641 C51.546875,19.1982422 51.6318359,19.4912109 51.6318359,19.8720703 L51.6318359,19.8720703 L51.6318359,27 L53.1787109,27 L53.1787109,19.6787109 C53.1962891,19.5498047 53.2314453,19.425293 53.2841797,19.3051758 C53.3369141,19.1850586 53.4101562,19.0795898 53.5039062,18.9887695 C53.5976562,18.8979492 53.7148438,18.8261719 53.8554688,18.7734375 C53.9960938,18.7207031 54.1630859,18.6943359 54.3564453,18.6943359 C55.0888672,18.6884766 55.4550781,19.0839844 55.4550781,19.8808594 L55.4550781,19.8808594 L55.4550781,27 L57.0019531,27 L57.0019531,19.8984375 C57.0019531,19.03125 56.8144531,18.3837891 56.4394531,17.9560547 C56.0644531,17.5283203 55.5283203,17.3144531 54.8310547,17.3144531 C54.3916016,17.3203125 54.0180664,17.4155273 53.7104492,17.6000977 C53.402832,17.784668 53.1552734,18.0292969 52.9677734,18.3339844 C52.6748047,17.6542969 52.0917969,17.3144531 51.21875,17.3144531 C50.7734375,17.3203125 50.394043,17.4169922 50.0805664,17.6044922 C49.7670898,17.7919922 49.5136719,18.0527344 49.3203125,18.3867188 L49.3203125,18.3867188 L49.2763672,17.4902344 L47.8173828,17.4902344 L47.8173828,27 L49.3642578,27 Z M62.46875,27.1757812 C62.7792969,27.1757812 63.0722656,27.1435547 63.3476562,27.0791016 C63.6230469,27.0146484 63.8823242,26.9267578 64.1254883,26.8154297 C64.3686523,26.7041016 64.5913086,26.5751953 64.793457,26.4287109 C64.9956055,26.2822266 65.1787109,26.1269531 65.3427734,25.9628906 C65.3603516,26.1621094 65.3881836,26.3540039 65.4262695,26.5385742 C65.4643555,26.7231445 65.515625,26.8769531 65.5800781,27 L65.5800781,27 L67.2763672,27 L67.2763672,26.859375 C67.1708984,26.5957031 67.0888672,26.2866211 67.0302734,25.9321289 C66.9716797,25.5776367 66.9423828,25.2421875 66.9423828,24.9257812 L66.9423828,24.9257812 L66.9423828,20.5048828 C66.9423828,19.9716797 66.8457031,19.5058594 66.6523438,19.1074219 C66.4589844,18.7089844 66.1938477,18.3764648 65.8569336,18.1098633 C65.5200195,17.8432617 65.1201172,17.644043 64.6572266,17.512207 C64.1943359,17.3803711 63.6933594,17.3144531 63.1542969,17.3144531 C62.5625,17.3144531 62.0336914,17.3964844 61.5678711,17.5605469 C61.1020508,17.7246094 60.706543,17.9399414 60.3813477,18.206543 C60.0561523,18.4731445 59.8071289,18.7734375 59.6342773,19.1074219 C59.4614258,19.4414062 59.3720703,19.78125 59.3662109,20.1269531 L59.3662109,20.1269531 L61.0009766,20.1269531 C61.0009766,19.9277344 61.0493164,19.7358398 61.1459961,19.5512695 C61.2426758,19.3666992 61.3789062,19.2070312 61.5546875,19.0722656 C61.7304688,18.9375 61.9458008,18.8291016 62.2006836,18.7470703 C62.4555664,18.6650391 62.7441406,18.6240234 63.0664062,18.6240234 C63.4121094,18.6240234 63.7241211,18.6679688 64.0024414,18.7558594 C64.2807617,18.84375 64.5166016,18.9682617 64.7099609,19.1293945 C64.9033203,19.2905273 65.0527344,19.4853516 65.1582031,19.7138672 C65.2636719,19.9423828 65.3164062,20.2001953 65.3164062,20.4873047 L65.3164062,20.4873047 L65.3164062,21.234375 L63.5410156,21.234375 C62.8789062,21.234375 62.2797852,21.2988281 61.7436523,21.4277344 C61.2075195,21.5566406 60.7490234,21.7514648 60.3681641,22.012207 C59.9873047,22.2729492 59.6928711,22.5996094 59.4848633,22.9921875 C59.2768555,23.3847656 59.1728516,23.8417969 59.1728516,24.3632812 C59.1728516,24.7617188 59.2504883,25.1323242 59.4057617,25.4750977 C59.5610352,25.8178711 59.7807617,26.1137695 60.0649414,26.362793 C60.3491211,26.6118164 60.6948242,26.8095703 61.1020508,26.9560547 C61.5092773,27.1025391 61.9648438,27.1757812 62.46875,27.1757812 Z M62.7060547,25.7607422 C62.3896484,25.7607422 62.1113281,25.7197266 61.8710938,25.6376953 C61.6308594,25.5556641 61.4316406,25.4428711 61.2734375,25.2993164 C61.1152344,25.1557617 60.996582,24.984375 60.9174805,24.7851562 C60.8383789,24.5859375 60.7988281,24.3691406 60.7988281,24.1347656 C60.7988281,23.53125 61.0625,23.0888672 61.5898438,22.8076172 C62.1171875,22.5263672 62.8554688,22.3857422 63.8046875,22.3857422 L63.8046875,22.3857422 L65.3164062,22.3857422 L65.3164062,24.3105469 C65.2226562,24.4980469 65.09375,24.6782227 64.9296875,24.8510742 C64.765625,25.0239258 64.5708008,25.1777344 64.3452148,25.3125 C64.1196289,25.4472656 63.8691406,25.5556641 63.59375,25.6376953 C63.3183594,25.7197266 63.0224609,25.7607422 62.7060547,25.7607422 Z M74.3867188,15.9169922 C74.7089844,15.9169922 74.9521484,15.8291016 75.1162109,15.6533203 C75.2802734,15.4775391 75.3623047,15.2578125 75.3623047,14.9941406 C75.3623047,14.7246094 75.2802734,14.4975586 75.1162109,14.3129883 C74.9521484,14.128418 74.7089844,14.0361328 74.3867188,14.0361328 C74.0585938,14.0361328 73.8139648,14.128418 73.652832,14.3129883 C73.4916992,14.4975586 73.4111328,14.7246094 73.4111328,14.9941406 C73.4111328,15.2578125 73.4916992,15.4775391 73.652832,15.6533203 C73.8139648,15.8291016 74.0585938,15.9169922 74.3867188,15.9169922 Z M78.3505859,27 L78.3505859,25.59375 L75.2480469,25.59375 L75.2480469,17.4902344 L70.3876953,17.4902344 L70.3876953,18.9052734 L73.6220703,18.9052734 L73.6220703,25.59375 L70.3876953,25.59375 L70.3876953,27 L78.3505859,27 Z M89.1523438,27 L89.1523438,25.59375 L86.0498047,25.59375 L86.0498047,13.5 L81.1894531,13.5 L81.1894531,14.9150391 L84.4238281,14.9150391 L84.4238281,25.59375 L81.1894531,25.59375 L81.1894531,27 L89.1523438,27 Z M105.87793,27.1757812 C106.499023,27.1757812 107.046875,27.0454102 107.521484,26.784668 C107.996094,26.5239258 108.391602,26.1591797 108.708008,25.6904297 L108.708008,25.6904297 L108.804688,27 L110.28125,27 L110.28125,17.4902344 L108.646484,17.4902344 L108.646484,24.3105469 C108.447266,24.7675781 108.144043,25.1308594 107.736816,25.4003906 C107.32959,25.6699219 106.794922,25.8046875 106.132812,25.8046875 C105.822266,25.8046875 105.54834,25.7636719 105.311035,25.6816406 C105.07373,25.5996094 104.873047,25.4575195 104.708984,25.2553711 C104.544922,25.0532227 104.421875,24.7822266 104.339844,24.4423828 C104.257812,24.1025391 104.216797,23.6748047 104.216797,23.1591797 L104.216797,23.1591797 L104.216797,17.4902344 L102.59082,17.4902344 L102.59082,23.1416016 C102.59082,23.8505859 102.668457,24.4584961 102.82373,24.965332 C102.979004,25.472168 103.200195,25.8896484 103.487305,26.2177734 C103.774414,26.5458984 104.120117,26.7875977 104.524414,26.9428711 C104.928711,27.0981445 105.379883,27.1757812 105.87793,27.1757812 Z M117.426758,27.1757812 C117.989258,27.1757812 118.507812,27.1083984 118.982422,26.9736328 C119.457031,26.8388672 119.864258,26.6484375 120.204102,26.4023438 C120.543945,26.15625 120.809082,25.8603516 120.999512,25.5146484 C121.189941,25.1689453 121.285156,24.7851562 121.285156,24.3632812 C121.285156,23.9707031 121.20166,23.625 121.034668,23.3261719 C120.867676,23.0273438 120.625977,22.7651367 120.30957,22.5395508 C119.993164,22.3139648 119.603516,22.1206055 119.140625,21.9594727 C118.677734,21.7983398 118.15332,21.65625 117.567383,21.5332031 C117.12207,21.4453125 116.754395,21.3544922 116.464355,21.2607422 C116.174316,21.1669922 115.942871,21.0615234 115.77002,20.9443359 C115.597168,20.8271484 115.475586,20.6953125 115.405273,20.5488281 C115.334961,20.4023438 115.299805,20.2353516 115.299805,20.0478516 C115.299805,19.8662109 115.34375,19.6904297 115.431641,19.5205078 C115.519531,19.3505859 115.649902,19.2011719 115.822754,19.0722656 C115.995605,18.9433594 116.212402,18.8408203 116.473145,18.7646484 C116.733887,18.6884766 117.037109,18.6503906 117.382812,18.6503906 C117.716797,18.6503906 118.01709,18.6972656 118.283691,18.7910156 C118.550293,18.8847656 118.777344,19.0078125 118.964844,19.1601562 C119.152344,19.3125 119.298828,19.4868164 119.404297,19.6831055 C119.509766,19.8793945 119.5625,20.0800781 119.5625,20.2851562 L119.5625,20.2851562 L121.188477,20.2851562 C121.188477,19.8691406 121.099121,19.480957 120.92041,19.1206055 C120.741699,18.7602539 120.488281,18.4453125 120.160156,18.1757812 C119.832031,17.90625 119.433594,17.6953125 118.964844,17.5429688 C118.496094,17.390625 117.96875,17.3144531 117.382812,17.3144531 C116.837891,17.3144531 116.338379,17.3876953 115.884277,17.5341797 C115.430176,17.6806641 115.039062,17.8798828 114.710938,18.1318359 C114.382812,18.3837891 114.12793,18.6782227 113.946289,19.0151367 C113.764648,19.3520508 113.673828,19.7138672 113.673828,20.1005859 C113.673828,20.4931641 113.761719,20.8374023 113.9375,21.1333008 C114.113281,21.4291992 114.36084,21.6870117 114.680176,21.9067383 C114.999512,22.1264648 115.383301,22.3154297 115.831543,22.4736328 C116.279785,22.6318359 116.776367,22.7666016 117.321289,22.8779297 C117.766602,22.9658203 118.138672,23.0639648 118.4375,23.1723633 C118.736328,23.2807617 118.976562,23.3994141 119.158203,23.5283203 C119.339844,23.6572266 119.46875,23.7993164 119.544922,23.9545898 C119.621094,24.1098633 119.65918,24.2841797 119.65918,24.4775391 C119.65332,24.8935547 119.451172,25.2275391 119.052734,25.4794922 C118.654297,25.7314453 118.112305,25.8574219 117.426758,25.8574219 C117.151367,25.8574219 116.873047,25.828125 116.591797,25.7695312 C116.310547,25.7109375 116.054199,25.6113281 115.822754,25.4707031 C115.591309,25.3300781 115.397949,25.1455078 115.242676,24.9169922 C115.087402,24.6884766 114.998047,24.4072266 114.974609,24.0732422 L114.974609,24.0732422 L113.348633,24.0732422 C113.348633,24.4775391 113.440918,24.8671875 113.625488,25.2421875 C113.810059,25.6171875 114.07666,25.9467773 114.425293,26.230957 C114.773926,26.5151367 115.200195,26.7436523 115.704102,26.9165039 C116.208008,27.0893555 116.782227,27.1757812 117.426758,27.1757812 Z" id="e-mailus" fill="#FFFFFF" fill-rule="nonzero"></path>
                    </g>
                </g>
            </g>
        </g>
    </g>
</svg>